<mxfile host="app.diagrams.net" modified="2021-11-26T16:58:51.409Z" agent="5.0 (X11)" etag="LPVMB-tl3w4w8fil7BsN" version="15.8.6" type="github" pages="14">
  <diagram id="prtHgNgQTEPvFCAcTncT" name="#1 Software Structure 1">
    <mxGraphModel dx="1929" dy="1131" grid="1" gridSize="10" guides="1" tooltips="1" connect="1" arrows="1" fold="1" page="1" pageScale="1" pageWidth="1600" pageHeight="900" math="0" shadow="0">
      <root>
        <mxCell id="0" />
        <mxCell id="1" parent="0" />
        <mxCell id="NTErxbjZfQiD4P2O9LFr-4" style="edgeStyle=orthogonalEdgeStyle;rounded=1;orthogonalLoop=1;jettySize=auto;html=1;entryX=0;entryY=0.25;entryDx=0;entryDy=0;strokeWidth=4;" parent="1" source="BVTGFO8PCjX0Q4Ga4c29-6" target="QVGam7eYv88pX2ODM2sX-2" edge="1">
          <mxGeometry relative="1" as="geometry">
            <mxPoint x="1380" y="350" as="targetPoint" />
          </mxGeometry>
        </mxCell>
        <UserObject label="&lt;div&gt;&lt;font style=&quot;font-size: 24px&quot; face=&quot;Helvetica&quot;&gt;Planning &lt;br&gt;&lt;/font&gt;&lt;/div&gt;&lt;div&gt;&lt;font style=&quot;font-size: 24px&quot; face=&quot;Helvetica&quot;&gt;and &lt;br&gt;&lt;/font&gt;&lt;/div&gt;&lt;div&gt;&lt;font style=&quot;font-size: 24px&quot; face=&quot;Helvetica&quot;&gt;Control&lt;/font&gt;&lt;/div&gt;" link="data:page/id,5rZJDDQK4C5HfpNXJpXw" id="BVTGFO8PCjX0Q4Ga4c29-6">
          <mxCell style="whiteSpace=wrap;html=1;fillColor=#d5e8d4;strokeColor=#82b366;" parent="1" vertex="1">
            <mxGeometry x="890" y="350" width="240" height="240" as="geometry" />
          </mxCell>
        </UserObject>
        <mxCell id="BVTGFO8PCjX0Q4Ga4c29-8" value="" style="edgeStyle=orthogonalEdgeStyle;orthogonalLoop=1;jettySize=auto;html=1;strokeWidth=4;" parent="1" source="BVTGFO8PCjX0Q4Ga4c29-7" target="BVTGFO8PCjX0Q4Ga4c29-6" edge="1">
          <mxGeometry relative="1" as="geometry" />
        </mxCell>
        <mxCell id="3SJMdjhBlxJmGNAqzQwF-1" value="" style="edgeStyle=orthogonalEdgeStyle;rounded=0;orthogonalLoop=1;jettySize=auto;html=1;" parent="1" source="BVTGFO8PCjX0Q4Ga4c29-7" target="BVTGFO8PCjX0Q4Ga4c29-9" edge="1">
          <mxGeometry relative="1" as="geometry" />
        </mxCell>
        <UserObject label="&lt;div&gt;&lt;font style=&quot;font-size: 24px&quot; face=&quot;Helvetica&quot;&gt;Localization&lt;font style=&quot;font-size: 24px&quot;&gt; &lt;br&gt;&lt;/font&gt;&lt;/font&gt;&lt;/div&gt;&lt;div&gt;&lt;font style=&quot;font-size: 24px&quot; face=&quot;Helvetica&quot;&gt;&lt;font style=&quot;font-size: 24px&quot;&gt;and &lt;br&gt;&lt;/font&gt;&lt;/font&gt;&lt;/div&gt;&lt;div&gt;&lt;font style=&quot;font-size: 24px&quot; face=&quot;Helvetica&quot;&gt;&lt;font style=&quot;font-size: 24px&quot;&gt;Mapping&lt;/font&gt;&lt;/font&gt;&lt;/div&gt;" link="data:page/id,ldTAqI2T-_zdcecsA4YL" id="BVTGFO8PCjX0Q4Ga4c29-7">
          <mxCell style="whiteSpace=wrap;html=1;fillColor=#d5e8d4;strokeColor=#82b366;" parent="1" vertex="1">
            <mxGeometry x="530" y="350" width="240" height="240" as="geometry" />
          </mxCell>
        </UserObject>
        <mxCell id="NTErxbjZfQiD4P2O9LFr-3" style="rounded=0;orthogonalLoop=1;jettySize=auto;html=1;strokeWidth=4;exitX=0.5;exitY=0;exitDx=0;exitDy=0;entryX=0.5;entryY=1;entryDx=0;entryDy=0;" parent="1" source="BVTGFO8PCjX0Q4Ga4c29-9" target="BVTGFO8PCjX0Q4Ga4c29-7" edge="1">
          <mxGeometry relative="1" as="geometry">
            <mxPoint x="720" y="380" as="targetPoint" />
          </mxGeometry>
        </mxCell>
        <UserObject label="&lt;font style=&quot;font-size: 24px&quot;&gt;Perception&lt;/font&gt;" link="data:page/id,-KKOEtGZJ8pCZJSewmnd" id="BVTGFO8PCjX0Q4Ga4c29-9">
          <mxCell style="whiteSpace=wrap;html=1;fillColor=#d5e8d4;strokeColor=#82b366;" parent="1" vertex="1">
            <mxGeometry x="530" y="680" width="240" height="240" as="geometry" />
          </mxCell>
        </UserObject>
        <mxCell id="BVTGFO8PCjX0Q4Ga4c29-12" value="" style="orthogonalLoop=1;jettySize=auto;html=1;entryX=0;entryY=0.5;entryDx=0;entryDy=0;strokeWidth=4;exitX=1;exitY=0.75;exitDx=0;exitDy=0;edgeStyle=orthogonalEdgeStyle;" parent="1" source="BVTGFO8PCjX0Q4Ga4c29-11" target="BVTGFO8PCjX0Q4Ga4c29-9" edge="1">
          <mxGeometry relative="1" as="geometry">
            <mxPoint x="270" y="490" as="sourcePoint" />
          </mxGeometry>
        </mxCell>
        <mxCell id="BVTGFO8PCjX0Q4Ga4c29-11" value="&lt;font style=&quot;font-size: 24px&quot;&gt;Sensors&lt;/font&gt;" style="shape=hexagon;perimeter=hexagonPerimeter2;whiteSpace=wrap;html=1;fixedSize=1;fillColor=#fff2cc;strokeColor=#d6b656;" parent="1" vertex="1">
          <mxGeometry x="80" y="350" width="240" height="240" as="geometry" />
        </mxCell>
        <UserObject label="&lt;font style=&quot;font-size: 24px&quot;&gt;Manipulation&lt;/font&gt;" link="data:page/id,eIDvcr-Mc0Faxmhkl4jw" id="j1bvmrBYRaVz6i68Da42-1">
          <mxCell style="whiteSpace=wrap;html=1;fillColor=#d5e8d4;strokeColor=#82b366;" parent="1" vertex="1">
            <mxGeometry x="890" y="680" width="240" height="240" as="geometry" />
          </mxCell>
        </UserObject>
        <mxCell id="QVGam7eYv88pX2ODM2sX-2" value="&lt;font style=&quot;font-size: 24px&quot;&gt;Actuators&lt;/font&gt;" style="shape=hexagon;perimeter=hexagonPerimeter2;whiteSpace=wrap;html=1;fixedSize=1;fillColor=#fff2cc;strokeColor=#d6b656;" parent="1" vertex="1">
          <mxGeometry x="1330" y="520" width="240" height="240" as="geometry" />
        </mxCell>
        <mxCell id="QVGam7eYv88pX2ODM2sX-3" value="" style="orthogonalLoop=1;jettySize=auto;html=1;strokeWidth=4;exitX=1;exitY=0.5;exitDx=0;exitDy=0;entryX=0;entryY=0.5;entryDx=0;entryDy=0;" parent="1" source="BVTGFO8PCjX0Q4Ga4c29-9" target="j1bvmrBYRaVz6i68Da42-1" edge="1">
          <mxGeometry relative="1" as="geometry">
            <mxPoint x="780" y="480" as="sourcePoint" />
            <mxPoint x="900" y="480" as="targetPoint" />
          </mxGeometry>
        </mxCell>
        <mxCell id="QVGam7eYv88pX2ODM2sX-4" value="" style="orthogonalLoop=1;jettySize=auto;html=1;entryX=0;entryY=0.5;entryDx=0;entryDy=0;strokeWidth=4;exitX=1;exitY=0.5;exitDx=0;exitDy=0;edgeStyle=orthogonalEdgeStyle;" parent="1" source="BVTGFO8PCjX0Q4Ga4c29-11" target="BVTGFO8PCjX0Q4Ga4c29-7" edge="1">
          <mxGeometry relative="1" as="geometry">
            <mxPoint x="329.99923076923096" y="330.0046153846155" as="sourcePoint" />
            <mxPoint x="439.23" y="464.62" as="targetPoint" />
          </mxGeometry>
        </mxCell>
        <mxCell id="uKlhYvqAgomwyH2ibejN-1" value="" style="edgeStyle=orthogonalEdgeStyle;orthogonalLoop=1;jettySize=auto;html=1;strokeWidth=4;exitX=0.5;exitY=1;exitDx=0;exitDy=0;entryX=0.5;entryY=0;entryDx=0;entryDy=0;" parent="1" source="BVTGFO8PCjX0Q4Ga4c29-6" target="j1bvmrBYRaVz6i68Da42-1" edge="1">
          <mxGeometry relative="1" as="geometry">
            <mxPoint x="780" y="480" as="sourcePoint" />
            <mxPoint x="900" y="480" as="targetPoint" />
          </mxGeometry>
        </mxCell>
        <UserObject label="&lt;font style=&quot;font-size: 24px&quot;&gt;System State Machine&lt;/font&gt;" link="data:page/id,u-vYEVRFuFM_trzkMUZv" id="aUEweEP9m2kHBJZqXVKd-1">
          <mxCell style="whiteSpace=wrap;html=1;fillColor=#e1d5e7;strokeColor=#9673a6;" parent="1" vertex="1">
            <mxGeometry x="890" y="30" width="240" height="240" as="geometry" />
          </mxCell>
        </UserObject>
        <UserObject label="&lt;font style=&quot;font-size: 24px&quot;&gt;External Communication&lt;/font&gt;" link="data:page/id,C093qX0OF2oCDqaruYOA" id="aUEweEP9m2kHBJZqXVKd-2">
          <mxCell style="whiteSpace=wrap;html=1;fillColor=#e1d5e7;strokeColor=#9673a6;" parent="1" vertex="1">
            <mxGeometry x="1330" y="30" width="240" height="240" as="geometry" />
          </mxCell>
        </UserObject>
        <UserObject label="&lt;font style=&quot;font-size: 24px&quot;&gt;Energy Management&lt;/font&gt;" link="data:page/id,uP4-Yw_Tm0QMoZMme-e3" id="NXh-Xrs0AlqRyj2wZxv4-1">
          <mxCell style="whiteSpace=wrap;html=1;fillColor=#e1d5e7;strokeColor=#9673a6;" parent="1" vertex="1">
            <mxGeometry x="530" y="30" width="240" height="240" as="geometry" />
          </mxCell>
        </UserObject>
        <mxCell id="NXh-Xrs0AlqRyj2wZxv4-3" value="" style="orthogonalLoop=1;jettySize=auto;html=1;entryX=0;entryY=0.5;entryDx=0;entryDy=0;strokeWidth=4;exitX=1;exitY=0.25;exitDx=0;exitDy=0;edgeStyle=orthogonalEdgeStyle;" parent="1" source="BVTGFO8PCjX0Q4Ga4c29-11" target="NXh-Xrs0AlqRyj2wZxv4-1" edge="1">
          <mxGeometry relative="1" as="geometry">
            <mxPoint x="300.76923076923094" y="584.6153846153845" as="sourcePoint" />
            <mxPoint x="540" y="420" as="targetPoint" />
          </mxGeometry>
        </mxCell>
        <mxCell id="NXh-Xrs0AlqRyj2wZxv4-4" style="rounded=0;orthogonalLoop=1;jettySize=auto;html=1;strokeWidth=4;exitX=0;exitY=0.5;exitDx=0;exitDy=0;entryX=1;entryY=0.5;entryDx=0;entryDy=0;" parent="1" source="aUEweEP9m2kHBJZqXVKd-2" target="aUEweEP9m2kHBJZqXVKd-1" edge="1">
          <mxGeometry relative="1" as="geometry">
            <mxPoint x="770" y="690" as="sourcePoint" />
            <mxPoint x="770" y="600" as="targetPoint" />
          </mxGeometry>
        </mxCell>
        <mxCell id="NXh-Xrs0AlqRyj2wZxv4-5" style="rounded=0;orthogonalLoop=1;jettySize=auto;html=1;strokeWidth=4;exitX=1;exitY=0.5;exitDx=0;exitDy=0;entryX=0;entryY=0.5;entryDx=0;entryDy=0;" parent="1" source="NXh-Xrs0AlqRyj2wZxv4-1" target="aUEweEP9m2kHBJZqXVKd-1" edge="1">
          <mxGeometry relative="1" as="geometry">
            <mxPoint x="1340" y="160" as="sourcePoint" />
            <mxPoint x="1140" y="160" as="targetPoint" />
          </mxGeometry>
        </mxCell>
        <mxCell id="NXh-Xrs0AlqRyj2wZxv4-6" style="rounded=0;orthogonalLoop=1;jettySize=auto;html=1;strokeWidth=4;exitX=0.25;exitY=1;exitDx=0;exitDy=0;entryX=0.25;entryY=0;entryDx=0;entryDy=0;" parent="1" source="aUEweEP9m2kHBJZqXVKd-1" target="BVTGFO8PCjX0Q4Ga4c29-6" edge="1">
          <mxGeometry relative="1" as="geometry">
            <mxPoint x="1350" y="170" as="sourcePoint" />
            <mxPoint x="1150" y="170" as="targetPoint" />
          </mxGeometry>
        </mxCell>
        <mxCell id="NXh-Xrs0AlqRyj2wZxv4-7" value="" style="orthogonalLoop=1;jettySize=auto;html=1;entryX=0;entryY=0.75;entryDx=0;entryDy=0;strokeWidth=4;exitX=1;exitY=0.5;exitDx=0;exitDy=0;edgeStyle=orthogonalEdgeStyle;" parent="1" source="j1bvmrBYRaVz6i68Da42-1" target="QVGam7eYv88pX2ODM2sX-2" edge="1">
          <mxGeometry relative="1" as="geometry">
            <mxPoint x="320.76923076923094" y="535.3846153846155" as="sourcePoint" />
            <mxPoint x="540" y="810" as="targetPoint" />
            <Array as="points">
              <mxPoint x="1230" y="800" />
              <mxPoint x="1230" y="695" />
            </Array>
          </mxGeometry>
        </mxCell>
        <mxCell id="ZHE6fOUJDF3_EZ3eqrjR-1" style="rounded=0;orthogonalLoop=1;jettySize=auto;html=1;strokeWidth=4;exitX=0.75;exitY=0;exitDx=0;exitDy=0;entryX=0.75;entryY=1;entryDx=0;entryDy=0;" parent="1" source="BVTGFO8PCjX0Q4Ga4c29-6" target="aUEweEP9m2kHBJZqXVKd-1" edge="1">
          <mxGeometry relative="1" as="geometry">
            <mxPoint x="960" y="280" as="sourcePoint" />
            <mxPoint x="960" y="360" as="targetPoint" />
          </mxGeometry>
        </mxCell>
      </root>
    </mxGraphModel>
  </diagram>
  <diagram id="t3CLCLFxvQZsMG7aiydm" name="#1 Complete 2nd Level">
    <mxGraphModel dx="7000" dy="4068" grid="1" gridSize="10" guides="1" tooltips="1" connect="1" arrows="1" fold="1" page="1" pageScale="1" pageWidth="1600" pageHeight="900" math="0" shadow="0">
      <root>
        <mxCell id="JnC5GAdZPETiTBhFDxdH-0" />
        <mxCell id="JnC5GAdZPETiTBhFDxdH-1" parent="JnC5GAdZPETiTBhFDxdH-0" />
        <UserObject label="Perception" id="eBjqp-EZ-cxovfOPaIwm-0">
          <mxCell style="swimlane;fillColor=#d5e8d4;strokeColor=#82b366;fontSize=24;strokeWidth=5;startSize=23;" parent="JnC5GAdZPETiTBhFDxdH-1" vertex="1">
            <mxGeometry x="560" y="1490" width="1060" height="680" as="geometry">
              <mxRectangle x="220" y="500" width="180" height="23" as="alternateBounds" />
            </mxGeometry>
          </mxCell>
        </UserObject>
        <UserObject label="&lt;font style=&quot;font-size: 24px&quot;&gt;Feature detection&lt;/font&gt;" id="eBjqp-EZ-cxovfOPaIwm-1">
          <mxCell style="whiteSpace=wrap;html=1;fillColor=#ffe6cc;strokeColor=#d79b00;" parent="eBjqp-EZ-cxovfOPaIwm-0" vertex="1">
            <mxGeometry x="370" y="60" width="310" height="230" as="geometry" />
          </mxCell>
        </UserObject>
        <mxCell id="eBjqp-EZ-cxovfOPaIwm-2" value="" style="endArrow=classic;html=1;entryX=0;entryY=0.5;entryDx=0;entryDy=0;strokeWidth=4;" parent="eBjqp-EZ-cxovfOPaIwm-0" target="eBjqp-EZ-cxovfOPaIwm-1" edge="1">
          <mxGeometry width="50" height="50" relative="1" as="geometry">
            <mxPoint y="175" as="sourcePoint" />
            <mxPoint x="50" y="75" as="targetPoint" />
          </mxGeometry>
        </mxCell>
        <mxCell id="eBjqp-EZ-cxovfOPaIwm-3" value="" style="endArrow=classic;html=1;strokeWidth=4;exitX=1;exitY=0.5;exitDx=0;exitDy=0;edgeStyle=elbowEdgeStyle;" parent="eBjqp-EZ-cxovfOPaIwm-0" source="eBjqp-EZ-cxovfOPaIwm-1" edge="1">
          <mxGeometry width="50" height="50" relative="1" as="geometry">
            <mxPoint x="10" y="185" as="sourcePoint" />
            <mxPoint x="1060" y="175" as="targetPoint" />
          </mxGeometry>
        </mxCell>
        <UserObject label="&lt;font style=&quot;font-size: 24px&quot;&gt;Visual Odometry&lt;br&gt;&lt;/font&gt;" id="eBjqp-EZ-cxovfOPaIwm-4">
          <mxCell style="whiteSpace=wrap;html=1;fillColor=#f5f5f5;strokeColor=#666666;fontColor=#333333;" parent="eBjqp-EZ-cxovfOPaIwm-0" vertex="1">
            <mxGeometry x="375" y="390" width="310" height="230" as="geometry" />
          </mxCell>
        </UserObject>
        <mxCell id="Gg8qK8K6nvMxE5CROg3e-0" value="" style="endArrow=classic;html=1;entryX=0;entryY=0.5;entryDx=0;entryDy=0;strokeWidth=4;dashed=1;" parent="eBjqp-EZ-cxovfOPaIwm-0" target="eBjqp-EZ-cxovfOPaIwm-4" edge="1">
          <mxGeometry width="50" height="50" relative="1" as="geometry">
            <mxPoint y="505" as="sourcePoint" />
            <mxPoint x="380" y="185" as="targetPoint" />
          </mxGeometry>
        </mxCell>
        <UserObject label="Mapping and Localization" id="su-nEgWDd6xqNbzxPJ-f-0">
          <mxCell style="swimlane;fillColor=#d5e8d4;strokeColor=#82b366;fontSize=24;strokeWidth=5;" parent="JnC5GAdZPETiTBhFDxdH-1" vertex="1">
            <mxGeometry x="560" y="280" width="1060" height="960" as="geometry">
              <mxRectangle x="220" y="500" width="180" height="23" as="alternateBounds" />
            </mxGeometry>
          </mxCell>
        </UserObject>
        <mxCell id="su-nEgWDd6xqNbzxPJ-f-1" value="" style="endArrow=classic;entryX=0;entryY=0.5;entryDx=0;entryDy=0;verticalAlign=top;horizontal=1;strokeWidth=4;" parent="su-nEgWDd6xqNbzxPJ-f-0" target="su-nEgWDd6xqNbzxPJ-f-3" edge="1">
          <mxGeometry width="50" height="50" relative="1" as="geometry">
            <mxPoint y="505" as="sourcePoint" />
            <mxPoint x="490" y="-180" as="targetPoint" />
          </mxGeometry>
        </mxCell>
        <UserObject label="&lt;font style=&quot;font-size: 24px&quot;&gt;Localization&lt;/font&gt;" id="su-nEgWDd6xqNbzxPJ-f-2">
          <mxCell style="whiteSpace=wrap;html=1;fillColor=#ffe6cc;strokeColor=#d79b00;" parent="su-nEgWDd6xqNbzxPJ-f-0" vertex="1">
            <mxGeometry x="90" y="60" width="310" height="230" as="geometry" />
          </mxCell>
        </UserObject>
        <UserObject label="&lt;font style=&quot;font-size: 24px&quot;&gt;Mapping&lt;/font&gt;" id="su-nEgWDd6xqNbzxPJ-f-3">
          <mxCell style="whiteSpace=wrap;html=1;fillColor=#ffe6cc;strokeColor=#d79b00;" parent="su-nEgWDd6xqNbzxPJ-f-0" vertex="1">
            <mxGeometry x="90" y="390" width="310" height="230" as="geometry" />
          </mxCell>
        </UserObject>
        <mxCell id="su-nEgWDd6xqNbzxPJ-f-4" value="" style="endArrow=classic;html=1;entryX=0;entryY=0.5;entryDx=0;entryDy=0;strokeWidth=4;" parent="su-nEgWDd6xqNbzxPJ-f-0" target="su-nEgWDd6xqNbzxPJ-f-2" edge="1">
          <mxGeometry width="50" height="50" relative="1" as="geometry">
            <mxPoint y="175" as="sourcePoint" />
            <mxPoint x="50" y="75" as="targetPoint" />
          </mxGeometry>
        </mxCell>
        <mxCell id="su-nEgWDd6xqNbzxPJ-f-5" value="" style="endArrow=classic;html=1;exitX=0.232;exitY=1.009;exitDx=0;exitDy=0;strokeWidth=4;exitPerimeter=0;entryX=0.235;entryY=0.004;entryDx=0;entryDy=0;entryPerimeter=0;" parent="su-nEgWDd6xqNbzxPJ-f-0" source="su-nEgWDd6xqNbzxPJ-f-2" target="su-nEgWDd6xqNbzxPJ-f-3" edge="1">
          <mxGeometry width="50" height="50" relative="1" as="geometry">
            <mxPoint x="630" y="170" as="sourcePoint" />
            <mxPoint x="680" y="120" as="targetPoint" />
            <Array as="points" />
          </mxGeometry>
        </mxCell>
        <mxCell id="su-nEgWDd6xqNbzxPJ-f-6" style="edgeStyle=elbowEdgeStyle;rounded=0;orthogonalLoop=1;jettySize=auto;html=0;verticalAlign=top;strokeWidth=4;exitX=1.006;exitY=0.496;exitDx=0;exitDy=0;exitPerimeter=0;" parent="su-nEgWDd6xqNbzxPJ-f-0" source="su-nEgWDd6xqNbzxPJ-f-2" edge="1">
          <mxGeometry relative="1" as="geometry">
            <mxPoint x="1060" y="174" as="targetPoint" />
            <mxPoint x="420" y="173" as="sourcePoint" />
          </mxGeometry>
        </mxCell>
        <mxCell id="su-nEgWDd6xqNbzxPJ-f-7" style="edgeStyle=orthogonalEdgeStyle;rounded=0;orthogonalLoop=1;jettySize=auto;html=0;verticalAlign=top;exitX=1;exitY=0.5;exitDx=0;exitDy=0;strokeWidth=4;" parent="su-nEgWDd6xqNbzxPJ-f-0" source="su-nEgWDd6xqNbzxPJ-f-3" edge="1">
          <mxGeometry relative="1" as="geometry">
            <mxPoint x="1060" y="505" as="targetPoint" />
            <mxPoint x="290" y="610" as="sourcePoint" />
          </mxGeometry>
        </mxCell>
        <mxCell id="su-nEgWDd6xqNbzxPJ-f-8" value="" style="endArrow=classic;html=1;entryX=0.739;entryY=1.013;entryDx=0;entryDy=0;strokeWidth=4;entryPerimeter=0;dashed=1;" parent="su-nEgWDd6xqNbzxPJ-f-0" target="su-nEgWDd6xqNbzxPJ-f-2" edge="1">
          <mxGeometry width="50" height="50" relative="1" as="geometry">
            <mxPoint x="319" y="386" as="sourcePoint" />
            <mxPoint x="310" y="289.9999999999999" as="targetPoint" />
            <Array as="points" />
          </mxGeometry>
        </mxCell>
        <UserObject label="&lt;font style=&quot;font-size: 24px&quot;&gt;SLAM&lt;/font&gt;" id="su-nEgWDd6xqNbzxPJ-f-9">
          <mxCell style="whiteSpace=wrap;html=1;fillColor=#f5f5f5;strokeColor=#666666;fontColor=#333333;" parent="su-nEgWDd6xqNbzxPJ-f-0" vertex="1">
            <mxGeometry x="90" y="680" width="310" height="230" as="geometry" />
          </mxCell>
        </UserObject>
        <mxCell id="su-nEgWDd6xqNbzxPJ-f-10" value="" style="endArrow=classic;entryX=-0.003;entryY=0.5;entryDx=0;entryDy=0;verticalAlign=top;horizontal=1;strokeWidth=4;entryPerimeter=0;dashed=1;" parent="su-nEgWDd6xqNbzxPJ-f-0" target="su-nEgWDd6xqNbzxPJ-f-9" edge="1">
          <mxGeometry width="50" height="50" relative="1" as="geometry">
            <mxPoint y="795" as="sourcePoint" />
            <mxPoint x="100" y="515" as="targetPoint" />
          </mxGeometry>
        </mxCell>
        <mxCell id="su-nEgWDd6xqNbzxPJ-f-11" style="edgeStyle=orthogonalEdgeStyle;rounded=0;orthogonalLoop=1;jettySize=auto;html=0;verticalAlign=top;exitX=1;exitY=0.5;exitDx=0;exitDy=0;strokeWidth=4;exitPerimeter=0;dashed=1;" parent="su-nEgWDd6xqNbzxPJ-f-0" source="su-nEgWDd6xqNbzxPJ-f-9" edge="1">
          <mxGeometry relative="1" as="geometry">
            <mxPoint x="1060" y="795" as="targetPoint" />
            <mxPoint x="410" y="515" as="sourcePoint" />
          </mxGeometry>
        </mxCell>
        <UserObject label="Planning and Control" id="E1CAmgSoHxVSuec9Rpcz-0">
          <mxCell style="swimlane;fillColor=#d5e8d4;strokeColor=#82b366;fontSize=24;strokeWidth=5;" parent="JnC5GAdZPETiTBhFDxdH-1" vertex="1">
            <mxGeometry x="1970" y="280" width="1060" height="1050" as="geometry">
              <mxRectangle x="220" y="500" width="180" height="23" as="alternateBounds" />
            </mxGeometry>
          </mxCell>
        </UserObject>
        <mxCell id="E1CAmgSoHxVSuec9Rpcz-1" value="" style="endArrow=classic;entryX=0;entryY=0.5;entryDx=0;entryDy=0;verticalAlign=top;horizontal=1;strokeWidth=4;" parent="E1CAmgSoHxVSuec9Rpcz-0" target="E1CAmgSoHxVSuec9Rpcz-3" edge="1">
          <mxGeometry width="50" height="50" relative="1" as="geometry">
            <mxPoint y="505" as="sourcePoint" />
            <mxPoint x="490" y="-180" as="targetPoint" />
          </mxGeometry>
        </mxCell>
        <UserObject label="&lt;font style=&quot;font-size: 24px&quot;&gt;Global Planning&lt;/font&gt;" id="E1CAmgSoHxVSuec9Rpcz-2">
          <mxCell style="whiteSpace=wrap;html=1;fillColor=#f5f5f5;strokeColor=#666666;fontColor=#333333;" parent="E1CAmgSoHxVSuec9Rpcz-0" vertex="1">
            <mxGeometry x="90" y="60" width="310" height="230" as="geometry" />
          </mxCell>
        </UserObject>
        <UserObject label="&lt;font style=&quot;font-size: 24px&quot;&gt;Local Planning&lt;/font&gt;" id="E1CAmgSoHxVSuec9Rpcz-3">
          <mxCell style="whiteSpace=wrap;html=1;fillColor=#f5f5f5;strokeColor=#666666;fontColor=#333333;" parent="E1CAmgSoHxVSuec9Rpcz-0" vertex="1">
            <mxGeometry x="90" y="390" width="310" height="230" as="geometry" />
          </mxCell>
        </UserObject>
        <mxCell id="E1CAmgSoHxVSuec9Rpcz-4" value="" style="endArrow=classic;html=1;entryX=0;entryY=0.5;entryDx=0;entryDy=0;strokeWidth=4;" parent="E1CAmgSoHxVSuec9Rpcz-0" target="E1CAmgSoHxVSuec9Rpcz-2" edge="1">
          <mxGeometry width="50" height="50" relative="1" as="geometry">
            <mxPoint y="175" as="sourcePoint" />
            <mxPoint x="50" y="75" as="targetPoint" />
          </mxGeometry>
        </mxCell>
        <mxCell id="E1CAmgSoHxVSuec9Rpcz-5" value="" style="endArrow=classic;html=1;exitX=0.232;exitY=1.009;exitDx=0;exitDy=0;strokeWidth=4;exitPerimeter=0;entryX=0.235;entryY=0.004;entryDx=0;entryDy=0;entryPerimeter=0;" parent="E1CAmgSoHxVSuec9Rpcz-0" source="E1CAmgSoHxVSuec9Rpcz-2" target="E1CAmgSoHxVSuec9Rpcz-3" edge="1">
          <mxGeometry width="50" height="50" relative="1" as="geometry">
            <mxPoint x="630" y="170" as="sourcePoint" />
            <mxPoint x="680" y="120" as="targetPoint" />
            <Array as="points" />
          </mxGeometry>
        </mxCell>
        <mxCell id="E1CAmgSoHxVSuec9Rpcz-6" style="edgeStyle=elbowEdgeStyle;rounded=0;orthogonalLoop=1;jettySize=auto;html=0;verticalAlign=top;strokeWidth=4;exitX=1.006;exitY=0.496;exitDx=0;exitDy=0;exitPerimeter=0;dashed=1;" parent="E1CAmgSoHxVSuec9Rpcz-0" source="E1CAmgSoHxVSuec9Rpcz-2" edge="1">
          <mxGeometry relative="1" as="geometry">
            <mxPoint x="1060" y="174" as="targetPoint" />
            <mxPoint x="420" y="173" as="sourcePoint" />
          </mxGeometry>
        </mxCell>
        <mxCell id="E1CAmgSoHxVSuec9Rpcz-7" style="edgeStyle=orthogonalEdgeStyle;rounded=0;orthogonalLoop=1;jettySize=auto;html=0;verticalAlign=top;exitX=1;exitY=0.5;exitDx=0;exitDy=0;strokeWidth=4;dashed=1;" parent="E1CAmgSoHxVSuec9Rpcz-0" source="E1CAmgSoHxVSuec9Rpcz-3" edge="1">
          <mxGeometry relative="1" as="geometry">
            <mxPoint x="1060" y="505" as="targetPoint" />
            <mxPoint x="290" y="610" as="sourcePoint" />
          </mxGeometry>
        </mxCell>
        <mxCell id="E1CAmgSoHxVSuec9Rpcz-8" value="" style="endArrow=classic;html=1;entryX=0.739;entryY=1.013;entryDx=0;entryDy=0;strokeWidth=4;entryPerimeter=0;dashed=1;" parent="E1CAmgSoHxVSuec9Rpcz-0" target="E1CAmgSoHxVSuec9Rpcz-2" edge="1">
          <mxGeometry width="50" height="50" relative="1" as="geometry">
            <mxPoint x="319" y="386" as="sourcePoint" />
            <mxPoint x="310" y="289.9999999999999" as="targetPoint" />
            <Array as="points" />
          </mxGeometry>
        </mxCell>
        <UserObject label="&lt;font style=&quot;font-size: 24px&quot;&gt;Path Control&lt;/font&gt;" id="E1CAmgSoHxVSuec9Rpcz-9">
          <mxCell style="whiteSpace=wrap;html=1;fillColor=#f5f5f5;strokeColor=#666666;fontColor=#333333;" parent="E1CAmgSoHxVSuec9Rpcz-0" vertex="1">
            <mxGeometry x="90" y="740" width="310" height="230" as="geometry" />
          </mxCell>
        </UserObject>
        <mxCell id="E1CAmgSoHxVSuec9Rpcz-10" value="" style="endArrow=classic;entryX=-0.003;entryY=0.5;entryDx=0;entryDy=0;verticalAlign=top;horizontal=1;strokeWidth=4;entryPerimeter=0;dashed=1;" parent="E1CAmgSoHxVSuec9Rpcz-0" target="E1CAmgSoHxVSuec9Rpcz-9" edge="1">
          <mxGeometry width="50" height="50" relative="1" as="geometry">
            <mxPoint y="855" as="sourcePoint" />
            <mxPoint x="100" y="575" as="targetPoint" />
          </mxGeometry>
        </mxCell>
        <mxCell id="E1CAmgSoHxVSuec9Rpcz-11" style="edgeStyle=orthogonalEdgeStyle;rounded=0;orthogonalLoop=1;jettySize=auto;html=0;verticalAlign=top;exitX=1;exitY=0.5;exitDx=0;exitDy=0;strokeWidth=4;exitPerimeter=0;" parent="E1CAmgSoHxVSuec9Rpcz-0" source="E1CAmgSoHxVSuec9Rpcz-9" edge="1">
          <mxGeometry relative="1" as="geometry">
            <mxPoint x="1060" y="855" as="targetPoint" />
            <mxPoint x="410" y="575" as="sourcePoint" />
          </mxGeometry>
        </mxCell>
        <mxCell id="E1CAmgSoHxVSuec9Rpcz-12" value="" style="endArrow=classic;html=1;exitX=0.213;exitY=1;exitDx=0;exitDy=0;strokeWidth=4;exitPerimeter=0;entryX=0.213;entryY=0;entryDx=0;entryDy=0;entryPerimeter=0;" parent="E1CAmgSoHxVSuec9Rpcz-0" source="E1CAmgSoHxVSuec9Rpcz-3" target="E1CAmgSoHxVSuec9Rpcz-9" edge="1">
          <mxGeometry width="50" height="50" relative="1" as="geometry">
            <mxPoint x="171.92000000000007" y="302.06999999999994" as="sourcePoint" />
            <mxPoint x="172.8499999999999" y="400.9200000000001" as="targetPoint" />
            <Array as="points" />
          </mxGeometry>
        </mxCell>
        <mxCell id="E1CAmgSoHxVSuec9Rpcz-13" value="" style="endArrow=classic;html=1;strokeWidth=4;dashed=1;exitX=0.739;exitY=-0.009;exitDx=0;exitDy=0;exitPerimeter=0;" parent="E1CAmgSoHxVSuec9Rpcz-0" source="E1CAmgSoHxVSuec9Rpcz-9" target="E1CAmgSoHxVSuec9Rpcz-3" edge="1">
          <mxGeometry width="50" height="50" relative="1" as="geometry">
            <mxPoint x="329" y="396" as="sourcePoint" />
            <mxPoint x="329.09000000000015" y="302.99" as="targetPoint" />
            <Array as="points">
              <mxPoint x="319" y="620" />
            </Array>
          </mxGeometry>
        </mxCell>
        <mxCell id="e0UEu42v-WFhEy8vI1wy-0" value="" style="shape=image;html=1;verticalAlign=top;verticalLabelPosition=bottom;labelBackgroundColor=#ffffff;imageAspect=0;aspect=fixed;image=https://cdn2.iconfinder.com/data/icons/circle-icons-1/64/caution-128.png;fontColor=#FF0000;strokeWidth=15;" parent="E1CAmgSoHxVSuec9Rpcz-0" vertex="1">
          <mxGeometry x="320" y="210" width="68" height="68" as="geometry" />
        </mxCell>
        <mxCell id="e0UEu42v-WFhEy8vI1wy-1" value="" style="shape=image;html=1;verticalAlign=top;verticalLabelPosition=bottom;labelBackgroundColor=#ffffff;imageAspect=0;aspect=fixed;image=https://cdn2.iconfinder.com/data/icons/circle-icons-1/64/caution-128.png;fontColor=#FF0000;strokeWidth=15;" parent="E1CAmgSoHxVSuec9Rpcz-0" vertex="1">
          <mxGeometry x="320" y="540" width="68" height="68" as="geometry" />
        </mxCell>
        <mxCell id="e0UEu42v-WFhEy8vI1wy-2" value="" style="shape=image;html=1;verticalAlign=top;verticalLabelPosition=bottom;labelBackgroundColor=#ffffff;imageAspect=0;aspect=fixed;image=https://cdn2.iconfinder.com/data/icons/circle-icons-1/64/caution-128.png;fontColor=#FF0000;strokeWidth=15;" parent="E1CAmgSoHxVSuec9Rpcz-0" vertex="1">
          <mxGeometry x="320" y="890" width="68" height="68" as="geometry" />
        </mxCell>
        <UserObject label="Manipulation" id="6eJEyn8S1XCctX3ZIfdM-0">
          <mxCell style="swimlane;fillColor=#d5e8d4;strokeColor=#82b366;fontSize=24;strokeWidth=5;startSize=23;" parent="JnC5GAdZPETiTBhFDxdH-1" vertex="1">
            <mxGeometry x="1980" y="1490" width="1060" height="690" as="geometry">
              <mxRectangle x="220" y="500" width="180" height="23" as="alternateBounds" />
            </mxGeometry>
          </mxCell>
        </UserObject>
        <UserObject label="&lt;font style=&quot;font-size: 24px&quot;&gt;Endeffector Localization&lt;/font&gt;" id="6eJEyn8S1XCctX3ZIfdM-1">
          <mxCell style="whiteSpace=wrap;html=1;fillColor=#f5f5f5;strokeColor=#666666;fontColor=#333333;" parent="6eJEyn8S1XCctX3ZIfdM-0" vertex="1">
            <mxGeometry x="370" y="60" width="310" height="230" as="geometry" />
          </mxCell>
        </UserObject>
        <mxCell id="6eJEyn8S1XCctX3ZIfdM-2" value="" style="endArrow=classic;html=1;entryX=0;entryY=0.5;entryDx=0;entryDy=0;strokeWidth=4;dashed=1;" parent="6eJEyn8S1XCctX3ZIfdM-0" target="6eJEyn8S1XCctX3ZIfdM-1" edge="1">
          <mxGeometry width="50" height="50" relative="1" as="geometry">
            <mxPoint y="175" as="sourcePoint" />
            <mxPoint x="50" y="75" as="targetPoint" />
          </mxGeometry>
        </mxCell>
        <mxCell id="6eJEyn8S1XCctX3ZIfdM-3" value="" style="endArrow=classic;html=1;entryX=1;entryY=0.25;entryDx=0;entryDy=0;strokeWidth=4;exitX=1;exitY=0.5;exitDx=0;exitDy=0;dashed=1;" parent="6eJEyn8S1XCctX3ZIfdM-0" source="6eJEyn8S1XCctX3ZIfdM-1" target="6eJEyn8S1XCctX3ZIfdM-0" edge="1">
          <mxGeometry width="50" height="50" relative="1" as="geometry">
            <mxPoint x="10" y="185" as="sourcePoint" />
            <mxPoint x="70" y="185" as="targetPoint" />
          </mxGeometry>
        </mxCell>
        <UserObject label="&lt;font style=&quot;font-size: 24px&quot;&gt;Endeffector Planning and Control&lt;br&gt;&lt;/font&gt;" id="6eJEyn8S1XCctX3ZIfdM-4">
          <mxCell style="whiteSpace=wrap;html=1;fillColor=#f5f5f5;strokeColor=#666666;fontColor=#333333;" parent="6eJEyn8S1XCctX3ZIfdM-0" vertex="1">
            <mxGeometry x="375" y="390" width="310" height="230" as="geometry" />
          </mxCell>
        </UserObject>
        <mxCell id="6eJEyn8S1XCctX3ZIfdM-5" value="" style="endArrow=classic;html=1;strokeWidth=4;dashed=1;" parent="6eJEyn8S1XCctX3ZIfdM-0" source="6eJEyn8S1XCctX3ZIfdM-1" target="6eJEyn8S1XCctX3ZIfdM-4" edge="1">
          <mxGeometry width="50" height="50" relative="1" as="geometry">
            <mxPoint x="10" y="185" as="sourcePoint" />
            <mxPoint x="380" y="185" as="targetPoint" />
          </mxGeometry>
        </mxCell>
        <mxCell id="6eJEyn8S1XCctX3ZIfdM-6" value="" style="endArrow=classic;html=1;entryX=0;entryY=0.5;entryDx=0;entryDy=0;strokeWidth=4;dashed=1;" parent="JnC5GAdZPETiTBhFDxdH-1" target="6eJEyn8S1XCctX3ZIfdM-4" edge="1">
          <mxGeometry width="50" height="50" relative="1" as="geometry">
            <mxPoint x="1980" y="1995" as="sourcePoint" />
            <mxPoint x="2330" y="1890" as="targetPoint" />
          </mxGeometry>
        </mxCell>
        <mxCell id="6eJEyn8S1XCctX3ZIfdM-7" value="" style="endArrow=classic;html=1;strokeWidth=4;exitX=1;exitY=0.5;exitDx=0;exitDy=0;dashed=1;" parent="JnC5GAdZPETiTBhFDxdH-1" source="6eJEyn8S1XCctX3ZIfdM-4" edge="1">
          <mxGeometry width="50" height="50" relative="1" as="geometry">
            <mxPoint x="2640" y="1890" as="sourcePoint" />
            <mxPoint x="3040" y="1995" as="targetPoint" />
          </mxGeometry>
        </mxCell>
        <UserObject label="External Communication" id="MeNQXATZWNCVsZNJtZwM-0">
          <mxCell style="swimlane;fillColor=#e1d5e7;strokeColor=#9673a6;fontSize=24;strokeWidth=5;startSize=23;" parent="JnC5GAdZPETiTBhFDxdH-1" vertex="1">
            <mxGeometry x="2990" y="-860" width="1060" height="690" as="geometry">
              <mxRectangle x="220" y="500" width="180" height="23" as="alternateBounds" />
            </mxGeometry>
          </mxCell>
        </UserObject>
        <UserObject label="&lt;font style=&quot;font-size: 24px&quot;&gt;Human-Machine-Interface/User Interface&lt;/font&gt;" id="MeNQXATZWNCVsZNJtZwM-1">
          <mxCell style="whiteSpace=wrap;html=1;fillColor=#f5f5f5;strokeColor=#666666;fontColor=#333333;" parent="MeNQXATZWNCVsZNJtZwM-0" vertex="1">
            <mxGeometry x="370" y="60" width="310" height="230" as="geometry" />
          </mxCell>
        </UserObject>
        <mxCell id="MeNQXATZWNCVsZNJtZwM-2" value="" style="endArrow=classic;html=1;entryX=0;entryY=0.5;entryDx=0;entryDy=0;strokeWidth=4;dashed=1;" parent="MeNQXATZWNCVsZNJtZwM-0" target="MeNQXATZWNCVsZNJtZwM-1" edge="1">
          <mxGeometry width="50" height="50" relative="1" as="geometry">
            <mxPoint y="175" as="sourcePoint" />
            <mxPoint x="50" y="75" as="targetPoint" />
          </mxGeometry>
        </mxCell>
        <mxCell id="MeNQXATZWNCVsZNJtZwM-3" value="" style="endArrow=classic;html=1;entryX=1;entryY=0.25;entryDx=0;entryDy=0;strokeWidth=4;exitX=1;exitY=0.5;exitDx=0;exitDy=0;dashed=1;" parent="MeNQXATZWNCVsZNJtZwM-0" source="MeNQXATZWNCVsZNJtZwM-1" target="MeNQXATZWNCVsZNJtZwM-0" edge="1">
          <mxGeometry width="50" height="50" relative="1" as="geometry">
            <mxPoint x="10" y="185" as="sourcePoint" />
            <mxPoint x="70" y="185" as="targetPoint" />
          </mxGeometry>
        </mxCell>
        <UserObject label="&lt;font style=&quot;font-size: 24px&quot;&gt;Cloud Services&lt;br&gt;&lt;/font&gt;" id="MeNQXATZWNCVsZNJtZwM-4">
          <mxCell style="whiteSpace=wrap;html=1;fillColor=#f5f5f5;strokeColor=#666666;fontColor=#333333;" parent="MeNQXATZWNCVsZNJtZwM-0" vertex="1">
            <mxGeometry x="375" y="390" width="310" height="230" as="geometry" />
          </mxCell>
        </UserObject>
        <mxCell id="MeNQXATZWNCVsZNJtZwM-5" value="" style="endArrow=classic;html=1;entryX=0;entryY=0.5;entryDx=0;entryDy=0;strokeWidth=4;dashed=1;" parent="JnC5GAdZPETiTBhFDxdH-1" edge="1">
          <mxGeometry width="50" height="50" relative="1" as="geometry">
            <mxPoint x="2990" y="-350" as="sourcePoint" />
            <mxPoint x="3370" y="-350" as="targetPoint" />
          </mxGeometry>
        </mxCell>
        <mxCell id="MeNQXATZWNCVsZNJtZwM-6" value="" style="endArrow=classic;html=1;strokeWidth=4;exitX=1;exitY=0.5;exitDx=0;exitDy=0;dashed=1;" parent="JnC5GAdZPETiTBhFDxdH-1" source="MeNQXATZWNCVsZNJtZwM-4" edge="1">
          <mxGeometry width="50" height="50" relative="1" as="geometry">
            <mxPoint x="3680" y="-350" as="sourcePoint" />
            <mxPoint x="4050" y="-355" as="targetPoint" />
          </mxGeometry>
        </mxCell>
        <UserObject label="State Machine" id="n3on3S0qOGb25P72qqPd-0">
          <mxCell style="swimlane;fillColor=#e1d5e7;strokeColor=#9673a6;fontSize=24;strokeWidth=5;startSize=23;" parent="JnC5GAdZPETiTBhFDxdH-1" vertex="1">
            <mxGeometry x="1570" y="-860" width="1060" height="690" as="geometry">
              <mxRectangle x="220" y="500" width="180" height="23" as="alternateBounds" />
            </mxGeometry>
          </mxCell>
        </UserObject>
        <UserObject label="&lt;font style=&quot;font-size: 24px&quot;&gt;System Level State Machine&lt;/font&gt;" id="n3on3S0qOGb25P72qqPd-1">
          <mxCell style="whiteSpace=wrap;html=1;fillColor=#f5f5f5;strokeColor=#666666;fontColor=#333333;" parent="n3on3S0qOGb25P72qqPd-0" vertex="1">
            <mxGeometry x="370" y="60" width="310" height="230" as="geometry" />
          </mxCell>
        </UserObject>
        <mxCell id="n3on3S0qOGb25P72qqPd-2" value="" style="endArrow=classic;html=1;entryX=0;entryY=0.5;entryDx=0;entryDy=0;strokeWidth=4;dashed=1;" parent="n3on3S0qOGb25P72qqPd-0" target="n3on3S0qOGb25P72qqPd-1" edge="1">
          <mxGeometry width="50" height="50" relative="1" as="geometry">
            <mxPoint y="175" as="sourcePoint" />
            <mxPoint x="50" y="75" as="targetPoint" />
          </mxGeometry>
        </mxCell>
        <mxCell id="n3on3S0qOGb25P72qqPd-3" value="" style="endArrow=classic;html=1;entryX=1;entryY=0.25;entryDx=0;entryDy=0;strokeWidth=4;exitX=1;exitY=0.5;exitDx=0;exitDy=0;dashed=1;" parent="n3on3S0qOGb25P72qqPd-0" source="n3on3S0qOGb25P72qqPd-1" target="n3on3S0qOGb25P72qqPd-0" edge="1">
          <mxGeometry width="50" height="50" relative="1" as="geometry">
            <mxPoint x="10" y="185" as="sourcePoint" />
            <mxPoint x="70" y="185" as="targetPoint" />
          </mxGeometry>
        </mxCell>
        <UserObject label="Energy Management" id="3C0Qu2AzsjdaB1r2MrDr-0">
          <mxCell style="swimlane;fillColor=#e1d5e7;strokeColor=#9673a6;fontSize=24;strokeWidth=5;startSize=23;" parent="JnC5GAdZPETiTBhFDxdH-1" vertex="1">
            <mxGeometry x="120" y="-860" width="1060" height="690" as="geometry">
              <mxRectangle x="220" y="500" width="180" height="23" as="alternateBounds" />
            </mxGeometry>
          </mxCell>
        </UserObject>
        <UserObject label="&lt;font style=&quot;font-size: 24px&quot;&gt;Battery Management System&lt;/font&gt;" id="3C0Qu2AzsjdaB1r2MrDr-1">
          <mxCell style="whiteSpace=wrap;html=1;fillColor=#f5f5f5;strokeColor=#666666;fontColor=#333333;" parent="3C0Qu2AzsjdaB1r2MrDr-0" vertex="1">
            <mxGeometry x="370" y="60" width="310" height="230" as="geometry" />
          </mxCell>
        </UserObject>
        <mxCell id="3C0Qu2AzsjdaB1r2MrDr-2" value="" style="endArrow=classic;html=1;entryX=0;entryY=0.5;entryDx=0;entryDy=0;strokeWidth=4;dashed=1;" parent="3C0Qu2AzsjdaB1r2MrDr-0" target="3C0Qu2AzsjdaB1r2MrDr-1" edge="1">
          <mxGeometry width="50" height="50" relative="1" as="geometry">
            <mxPoint y="175" as="sourcePoint" />
            <mxPoint x="50" y="75" as="targetPoint" />
          </mxGeometry>
        </mxCell>
        <mxCell id="3C0Qu2AzsjdaB1r2MrDr-3" value="" style="endArrow=classic;html=1;entryX=1;entryY=0.25;entryDx=0;entryDy=0;strokeWidth=4;exitX=1;exitY=0.5;exitDx=0;exitDy=0;dashed=1;" parent="3C0Qu2AzsjdaB1r2MrDr-0" source="3C0Qu2AzsjdaB1r2MrDr-1" target="3C0Qu2AzsjdaB1r2MrDr-0" edge="1">
          <mxGeometry width="50" height="50" relative="1" as="geometry">
            <mxPoint x="10" y="185" as="sourcePoint" />
            <mxPoint x="70" y="185" as="targetPoint" />
          </mxGeometry>
        </mxCell>
        <mxCell id="jOJKDl7Jnsj-r5JVYqfk-0" value="&lt;font style=&quot;font-size: 24px&quot;&gt;Sensors&lt;/font&gt;" style="shape=hexagon;perimeter=hexagonPerimeter2;whiteSpace=wrap;html=1;fixedSize=1;fillColor=#fff2cc;strokeColor=#d6b656;" parent="JnC5GAdZPETiTBhFDxdH-1" vertex="1">
          <mxGeometry x="-950" y="-160" width="650" height="2160" as="geometry" />
        </mxCell>
        <mxCell id="bbMb2LK51GsMgLjBfc7b-0" value="&lt;font style=&quot;font-size: 24px&quot;&gt;Actuators&lt;/font&gt;" style="shape=hexagon;perimeter=hexagonPerimeter2;whiteSpace=wrap;html=1;fixedSize=1;fillColor=#fff2cc;strokeColor=#d6b656;" parent="JnC5GAdZPETiTBhFDxdH-1" vertex="1">
          <mxGeometry x="5400" y="-570" width="650" height="2160" as="geometry" />
        </mxCell>
        <mxCell id="S_SDQH_IlfNJyBRX_d2J-0" value="" style="endArrow=classic;html=1;verticalAlign=top;strokeWidth=6;" parent="JnC5GAdZPETiTBhFDxdH-1" edge="1">
          <mxGeometry width="50" height="50" relative="1" as="geometry">
            <mxPoint x="1180" y="-750" as="sourcePoint" />
            <mxPoint x="1570" y="-750" as="targetPoint" />
          </mxGeometry>
        </mxCell>
        <mxCell id="S_SDQH_IlfNJyBRX_d2J-1" value="" style="endArrow=classic;html=1;verticalAlign=top;strokeWidth=6;" parent="JnC5GAdZPETiTBhFDxdH-1" edge="1">
          <mxGeometry width="50" height="50" relative="1" as="geometry">
            <mxPoint x="2990" y="-760" as="sourcePoint" />
            <mxPoint x="2630" y="-760" as="targetPoint" />
          </mxGeometry>
        </mxCell>
        <mxCell id="S_SDQH_IlfNJyBRX_d2J-2" value="" style="endArrow=classic;html=1;verticalAlign=top;strokeWidth=6;exitX=1;exitY=0.5;exitDx=0;exitDy=0;edgeStyle=orthogonalEdgeStyle;" parent="JnC5GAdZPETiTBhFDxdH-1" source="jOJKDl7Jnsj-r5JVYqfk-0" edge="1">
          <mxGeometry width="50" height="50" relative="1" as="geometry">
            <mxPoint x="120" y="370" as="sourcePoint" />
            <mxPoint x="560" y="370" as="targetPoint" />
          </mxGeometry>
        </mxCell>
        <mxCell id="S_SDQH_IlfNJyBRX_d2J-3" value="" style="endArrow=classic;html=1;verticalAlign=top;strokeWidth=6;" parent="JnC5GAdZPETiTBhFDxdH-1" edge="1">
          <mxGeometry width="50" height="50" relative="1" as="geometry">
            <mxPoint x="1620" y="370" as="sourcePoint" />
            <mxPoint x="1970" y="370" as="targetPoint" />
          </mxGeometry>
        </mxCell>
        <mxCell id="Gg8qK8K6nvMxE5CROg3e-1" value="" style="endArrow=classic;html=1;strokeWidth=4;dashed=1;" parent="JnC5GAdZPETiTBhFDxdH-1" edge="1">
          <mxGeometry width="50" height="50" relative="1" as="geometry">
            <mxPoint x="1240" y="2000" as="sourcePoint" />
            <mxPoint x="1620" y="2000" as="targetPoint" />
          </mxGeometry>
        </mxCell>
        <mxCell id="Gg8qK8K6nvMxE5CROg3e-2" value="" style="endArrow=classic;html=1;verticalAlign=top;strokeWidth=6;exitX=1;exitY=0.75;exitDx=0;exitDy=0;edgeStyle=orthogonalEdgeStyle;" parent="JnC5GAdZPETiTBhFDxdH-1" source="jOJKDl7Jnsj-r5JVYqfk-0" edge="1">
          <mxGeometry width="50" height="50" relative="1" as="geometry">
            <mxPoint x="-290" y="930" as="sourcePoint" />
            <mxPoint x="560" y="1560" as="targetPoint" />
            <Array as="points">
              <mxPoint x="-310" y="1440" />
              <mxPoint x="130" y="1440" />
              <mxPoint x="130" y="1560" />
            </Array>
          </mxGeometry>
        </mxCell>
        <mxCell id="Gg8qK8K6nvMxE5CROg3e-3" value="" style="endArrow=classic;html=1;verticalAlign=top;strokeWidth=6;exitX=1;exitY=0.25;exitDx=0;exitDy=0;edgeStyle=orthogonalEdgeStyle;" parent="JnC5GAdZPETiTBhFDxdH-1" source="jOJKDl7Jnsj-r5JVYqfk-0" edge="1">
          <mxGeometry width="50" height="50" relative="1" as="geometry">
            <mxPoint x="-280" y="940" as="sourcePoint" />
            <mxPoint x="120" y="-770" as="targetPoint" />
            <Array as="points">
              <mxPoint x="-160" y="396" />
              <mxPoint x="-160" y="-770" />
            </Array>
          </mxGeometry>
        </mxCell>
        <mxCell id="Gg8qK8K6nvMxE5CROg3e-5" value="" style="endArrow=classic;html=1;verticalAlign=top;strokeWidth=6;edgeStyle=orthogonalEdgeStyle;" parent="JnC5GAdZPETiTBhFDxdH-1" target="bbMb2LK51GsMgLjBfc7b-0" edge="1">
          <mxGeometry width="50" height="50" relative="1" as="geometry">
            <mxPoint x="3030" y="350" as="sourcePoint" />
            <mxPoint x="4510" y="30" as="targetPoint" />
          </mxGeometry>
        </mxCell>
        <mxCell id="Gg8qK8K6nvMxE5CROg3e-6" value="" style="endArrow=classic;html=1;verticalAlign=top;strokeWidth=6;edgeStyle=orthogonalEdgeStyle;entryX=0;entryY=0.75;entryDx=0;entryDy=0;" parent="JnC5GAdZPETiTBhFDxdH-1" target="bbMb2LK51GsMgLjBfc7b-0" edge="1">
          <mxGeometry width="50" height="50" relative="1" as="geometry">
            <mxPoint x="3050" y="1580" as="sourcePoint" />
            <mxPoint x="4690" y="1010" as="targetPoint" />
          </mxGeometry>
        </mxCell>
        <mxCell id="Gg8qK8K6nvMxE5CROg3e-7" value="" style="endArrow=classic;html=1;verticalAlign=top;strokeWidth=6;" parent="JnC5GAdZPETiTBhFDxdH-1" edge="1">
          <mxGeometry width="50" height="50" relative="1" as="geometry">
            <mxPoint x="1620" y="1590" as="sourcePoint" />
            <mxPoint x="1980" y="1590" as="targetPoint" />
          </mxGeometry>
        </mxCell>
        <mxCell id="H8TuRrcO4exR46DDmO42-0" value="" style="endArrow=classic;html=1;verticalAlign=top;strokeWidth=6;exitX=0.5;exitY=0;exitDx=0;exitDy=0;entryX=0.5;entryY=1;entryDx=0;entryDy=0;" parent="JnC5GAdZPETiTBhFDxdH-1" source="eBjqp-EZ-cxovfOPaIwm-0" target="su-nEgWDd6xqNbzxPJ-f-0" edge="1">
          <mxGeometry width="50" height="50" relative="1" as="geometry">
            <mxPoint x="1640" y="390" as="sourcePoint" />
            <mxPoint x="1990" y="390" as="targetPoint" />
          </mxGeometry>
        </mxCell>
        <mxCell id="H8TuRrcO4exR46DDmO42-1" value="" style="endArrow=classic;html=1;verticalAlign=top;strokeWidth=6;entryX=0.5;entryY=0;entryDx=0;entryDy=0;" parent="JnC5GAdZPETiTBhFDxdH-1" target="6eJEyn8S1XCctX3ZIfdM-0" edge="1">
          <mxGeometry width="50" height="50" relative="1" as="geometry">
            <mxPoint x="2510" y="1330" as="sourcePoint" />
            <mxPoint x="2000" y="400" as="targetPoint" />
          </mxGeometry>
        </mxCell>
        <mxCell id="H8TuRrcO4exR46DDmO42-2" value="" style="endArrow=classic;html=1;verticalAlign=top;strokeWidth=6;edgeStyle=orthogonalEdgeStyle;exitX=0.5;exitY=1;exitDx=0;exitDy=0;" parent="JnC5GAdZPETiTBhFDxdH-1" source="n3on3S0qOGb25P72qqPd-0" target="E1CAmgSoHxVSuec9Rpcz-0" edge="1">
          <mxGeometry width="50" height="50" relative="1" as="geometry">
            <mxPoint x="1910" y="90" as="sourcePoint" />
            <mxPoint x="4280" y="250" as="targetPoint" />
          </mxGeometry>
        </mxCell>
      </root>
    </mxGraphModel>
  </diagram>
  <diagram id="W1tqswjCSx2Y3Vs75J-8" name="#1 Complete 3rd Level">
    <mxGraphModel dx="1350" dy="2593" grid="1" gridSize="10" guides="1" tooltips="1" connect="1" arrows="1" fold="1" page="1" pageScale="1" pageWidth="1600" pageHeight="900" math="0" shadow="0">
      <root>
        <mxCell id="QLuwI2l5bgubQDhfUA6r-0" />
        <mxCell id="QLuwI2l5bgubQDhfUA6r-1" parent="QLuwI2l5bgubQDhfUA6r-0" />
        <mxCell id="sXogRkaU1QIhKhY5mOH--17" value="" style="endArrow=classic;html=1;verticalAlign=top;entryX=0;entryY=0.25;entryDx=0;entryDy=0;strokeWidth=6;edgeStyle=orthogonalEdgeStyle;" parent="QLuwI2l5bgubQDhfUA6r-1" edge="1">
          <mxGeometry width="50" height="50" relative="1" as="geometry">
            <mxPoint x="4770" y="-820" as="sourcePoint" />
            <mxPoint x="2030" y="180" as="targetPoint" />
            <Array as="points">
              <mxPoint x="5050" y="-820" />
              <mxPoint x="5050" y="-80" />
              <mxPoint x="1800" y="-80" />
              <mxPoint x="1800" y="180" />
            </Array>
          </mxGeometry>
        </mxCell>
        <mxCell id="sXogRkaU1QIhKhY5mOH--18" value="" style="endArrow=classic;html=1;verticalAlign=top;entryX=0;entryY=0.25;entryDx=0;entryDy=0;strokeWidth=6;exitX=1;exitY=0.5;exitDx=0;exitDy=0;" parent="QLuwI2l5bgubQDhfUA6r-1" source="r5SWy6UR8UswrA4f27es-0" edge="1">
          <mxGeometry x="0.7727" width="50" height="50" relative="1" as="geometry">
            <mxPoint x="1810" y="220.25" as="sourcePoint" />
            <mxPoint x="2030" y="220" as="targetPoint" />
            <mxPoint as="offset" />
          </mxGeometry>
        </mxCell>
        <mxCell id="sXogRkaU1QIhKhY5mOH--24" value="" style="endArrow=classic;html=1;verticalAlign=top;strokeWidth=6;edgeStyle=orthogonalEdgeStyle;elbow=vertical;" parent="QLuwI2l5bgubQDhfUA6r-1" edge="1">
          <mxGeometry x="0.8217" y="-20" width="50" height="50" relative="1" as="geometry">
            <mxPoint x="3040" y="240" as="sourcePoint" />
            <mxPoint x="3950" y="240" as="targetPoint" />
            <Array as="points">
              <mxPoint x="3710" y="240" />
              <mxPoint x="3710" y="240" />
            </Array>
            <mxPoint as="offset" />
          </mxGeometry>
        </mxCell>
        <mxCell id="IhGPdsOsKHOIMQtfvMSr-15" value="" style="endArrow=classic;html=1;verticalAlign=top;entryX=0;entryY=0.25;entryDx=0;entryDy=0;strokeWidth=6;edgeStyle=orthogonalEdgeStyle;exitX=1;exitY=0.25;exitDx=0;exitDy=0;" parent="QLuwI2l5bgubQDhfUA6r-1" source="r5SWy6UR8UswrA4f27es-0" edge="1">
          <mxGeometry x="0.9261" y="-10" width="50" height="50" relative="1" as="geometry">
            <mxPoint x="3530" y="-830" as="sourcePoint" />
            <mxPoint x="3760" y="-830" as="targetPoint" />
            <mxPoint as="offset" />
          </mxGeometry>
        </mxCell>
        <mxCell id="doJbNY5Y6_Ri1vRiY-hQ-18" value="" style="endArrow=classic;html=1;verticalAlign=top;strokeWidth=6;edgeStyle=orthogonalEdgeStyle;" parent="QLuwI2l5bgubQDhfUA6r-1" edge="1">
          <mxGeometry width="50" height="50" relative="1" as="geometry">
            <mxPoint x="3750" y="-80" as="sourcePoint" />
            <mxPoint x="3950" y="190" as="targetPoint" />
            <Array as="points">
              <mxPoint x="3730" y="-80" />
              <mxPoint x="3730" y="190" />
            </Array>
          </mxGeometry>
        </mxCell>
        <mxCell id="doJbNY5Y6_Ri1vRiY-hQ-19" value="" style="endArrow=classic;html=1;verticalAlign=top;strokeWidth=6;exitX=1;exitY=0.75;exitDx=0;exitDy=0;edgeStyle=orthogonalEdgeStyle;" parent="QLuwI2l5bgubQDhfUA6r-1" source="r5SWy6UR8UswrA4f27es-0" edge="1">
          <mxGeometry x="0.9611" y="-10" width="50" height="50" relative="1" as="geometry">
            <mxPoint x="3720" y="290" as="sourcePoint" />
            <mxPoint x="3950" y="290" as="targetPoint" />
            <Array as="points">
              <mxPoint x="1870" y="744" />
              <mxPoint x="1870" y="1440" />
              <mxPoint x="3240" y="1440" />
              <mxPoint x="3240" y="290" />
            </Array>
            <mxPoint as="offset" />
          </mxGeometry>
        </mxCell>
        <mxCell id="r5SWy6UR8UswrA4f27es-0" value="&lt;font style=&quot;font-size: 24px&quot;&gt;Sensors&lt;/font&gt;" style="shape=hexagon;perimeter=hexagonPerimeter2;whiteSpace=wrap;html=1;fixedSize=1;fillColor=#fff2cc;strokeColor=#d6b656;" parent="QLuwI2l5bgubQDhfUA6r-1" vertex="1">
          <mxGeometry x="940" y="-860" width="650" height="2160" as="geometry" />
        </mxCell>
        <mxCell id="vDUoODH_vhM_p8ohUDEW-3" value="&lt;font style=&quot;font-size: 24px&quot;&gt;Actuators&lt;/font&gt;" style="shape=hexagon;perimeter=hexagonPerimeter2;whiteSpace=wrap;html=1;fixedSize=1;fillColor=#fff2cc;strokeColor=#d6b656;" parent="QLuwI2l5bgubQDhfUA6r-1" vertex="1">
          <mxGeometry x="8930" y="-850" width="650" height="2160" as="geometry" />
        </mxCell>
        <mxCell id="BQ2iHvUieCQkWQaMGfZX-0" value="&lt;font style=&quot;font-size: 24px&quot;&gt;No 3rd Level Description of Manipulation, Planning and Control, External Communication and Power Management defined yet&lt;/font&gt;" style="rounded=0;whiteSpace=wrap;html=1;verticalAlign=top;" parent="QLuwI2l5bgubQDhfUA6r-1" vertex="1">
          <mxGeometry x="6410" y="-10" width="800" height="560" as="geometry" />
        </mxCell>
        <UserObject label="Feature detection" link="data:page/id,IOYLnJJ4BgAqwaHzsp6H" id="DH1eQhOb8WWBndo9mNIh-0">
          <mxCell style="swimlane;fillColor=#ffe6cc;strokeColor=#d79b00;fontSize=24;strokeWidth=5;" parent="QLuwI2l5bgubQDhfUA6r-1" vertex="1">
            <mxGeometry x="2030" y="130" width="1010" height="1180" as="geometry">
              <mxRectangle x="1750" y="200" width="180" height="23" as="alternateBounds" />
            </mxGeometry>
          </mxCell>
        </UserObject>
        <mxCell id="DH1eQhOb8WWBndo9mNIh-1" value="&lt;font style=&quot;font-size: 24px&quot;&gt;Row / End of row feature detection&lt;/font&gt;" style="whiteSpace=wrap;html=1;fillColor=#dae8fc;strokeColor=#6c8ebf;" parent="DH1eQhOb8WWBndo9mNIh-0" vertex="1">
          <mxGeometry x="220" y="70" width="220" height="155" as="geometry" />
        </mxCell>
        <mxCell id="DH1eQhOb8WWBndo9mNIh-2" value="Sensors:3D Point Cloud" style="endArrow=classic;html=1;verticalAlign=top;entryX=0;entryY=0.75;entryDx=0;entryDy=0;" parent="DH1eQhOb8WWBndo9mNIh-0" target="DH1eQhOb8WWBndo9mNIh-1" edge="1">
          <mxGeometry width="50" height="50" relative="1" as="geometry">
            <mxPoint y="186" as="sourcePoint" />
            <mxPoint x="90" y="133" as="targetPoint" />
          </mxGeometry>
        </mxCell>
        <mxCell id="DH1eQhOb8WWBndo9mNIh-3" value="Row Segment Feature List" style="endArrow=classic;html=1;verticalAlign=top;exitX=0.995;exitY=0.31;exitDx=0;exitDy=0;exitPerimeter=0;" parent="DH1eQhOb8WWBndo9mNIh-0" source="DH1eQhOb8WWBndo9mNIh-1" edge="1">
          <mxGeometry width="50" height="50" relative="1" as="geometry">
            <mxPoint y="556" as="sourcePoint" />
            <mxPoint x="1010" y="120" as="targetPoint" />
          </mxGeometry>
        </mxCell>
        <mxCell id="DH1eQhOb8WWBndo9mNIh-4" value="&lt;div&gt;Localization:Pose&lt;/div&gt;" style="endArrow=classic;html=1;verticalAlign=top;entryX=0;entryY=0.25;entryDx=0;entryDy=0;" parent="DH1eQhOb8WWBndo9mNIh-0" target="DH1eQhOb8WWBndo9mNIh-1" edge="1">
          <mxGeometry width="50" height="50" relative="1" as="geometry">
            <mxPoint y="109" as="sourcePoint" />
            <mxPoint x="100" y="143" as="targetPoint" />
          </mxGeometry>
        </mxCell>
        <mxCell id="DH1eQhOb8WWBndo9mNIh-5" value="End of Row Feature List" style="endArrow=classic;html=1;verticalAlign=top;exitX=1;exitY=0.75;exitDx=0;exitDy=0;" parent="DH1eQhOb8WWBndo9mNIh-0" source="DH1eQhOb8WWBndo9mNIh-1" edge="1">
          <mxGeometry width="50" height="50" relative="1" as="geometry">
            <mxPoint x="30" y="199.99999999999994" as="sourcePoint" />
            <mxPoint x="1010" y="190" as="targetPoint" />
          </mxGeometry>
        </mxCell>
        <mxCell id="DH1eQhOb8WWBndo9mNIh-6" value="&lt;div&gt;&lt;font style=&quot;font-size: 24px&quot;&gt;Weed detection&lt;/font&gt;&lt;/div&gt;" style="whiteSpace=wrap;html=1;fillColor=#f5f5f5;strokeColor=#666666;fontColor=#333333;" parent="DH1eQhOb8WWBndo9mNIh-0" vertex="1">
          <mxGeometry x="220" y="280" width="220" height="155" as="geometry" />
        </mxCell>
        <mxCell id="DH1eQhOb8WWBndo9mNIh-7" value="Localization:Pose" style="endArrow=classic;html=1;verticalAlign=top;entryX=0;entryY=0.25;entryDx=0;entryDy=0;dashed=1;" parent="DH1eQhOb8WWBndo9mNIh-0" target="DH1eQhOb8WWBndo9mNIh-6" edge="1">
          <mxGeometry width="50" height="50" relative="1" as="geometry">
            <mxPoint y="319" as="sourcePoint" />
            <mxPoint x="230" y="118.75" as="targetPoint" />
          </mxGeometry>
        </mxCell>
        <mxCell id="DH1eQhOb8WWBndo9mNIh-8" value="?Weed position list " style="endArrow=classic;html=1;verticalAlign=top;exitX=1;exitY=0.5;exitDx=0;exitDy=0;dashed=1;" parent="DH1eQhOb8WWBndo9mNIh-0" source="DH1eQhOb8WWBndo9mNIh-6" edge="1">
          <mxGeometry width="50" height="50" relative="1" as="geometry">
            <mxPoint x="440" y="359" as="sourcePoint" />
            <mxPoint x="1010" y="360" as="targetPoint" />
          </mxGeometry>
        </mxCell>
        <mxCell id="DH1eQhOb8WWBndo9mNIh-9" value="&lt;font style=&quot;font-size: 24px&quot;&gt;Single Crop detection&lt;/font&gt;" style="whiteSpace=wrap;html=1;fillColor=#f5f5f5;strokeColor=#666666;fontColor=#333333;" parent="DH1eQhOb8WWBndo9mNIh-0" vertex="1">
          <mxGeometry x="220" y="480" width="220" height="155" as="geometry" />
        </mxCell>
        <mxCell id="DH1eQhOb8WWBndo9mNIh-10" value="?List of Points" style="endArrow=classic;html=1;verticalAlign=top;dashed=1;" parent="DH1eQhOb8WWBndo9mNIh-0" edge="1">
          <mxGeometry width="50" height="50" relative="1" as="geometry">
            <mxPoint x="440" y="557.04" as="sourcePoint" />
            <mxPoint x="1010" y="557" as="targetPoint" />
          </mxGeometry>
        </mxCell>
        <mxCell id="DH1eQhOb8WWBndo9mNIh-11" value="&lt;font style=&quot;font-size: 24px&quot;&gt;Semantic edge detection&lt;br&gt;&lt;/font&gt;" style="whiteSpace=wrap;html=1;fillColor=#f5f5f5;strokeColor=#666666;fontColor=#333333;" parent="DH1eQhOb8WWBndo9mNIh-0" vertex="1">
          <mxGeometry x="220" y="690" width="220" height="155" as="geometry" />
        </mxCell>
        <mxCell id="DH1eQhOb8WWBndo9mNIh-12" value="&lt;font style=&quot;font-size: 24px&quot;&gt;Obstacle detection&lt;br&gt;&lt;/font&gt;" style="whiteSpace=wrap;html=1;fillColor=#f5f5f5;strokeColor=#666666;fontColor=#333333;" parent="DH1eQhOb8WWBndo9mNIh-0" vertex="1">
          <mxGeometry x="220" y="900" width="220" height="155" as="geometry" />
        </mxCell>
        <mxCell id="DH1eQhOb8WWBndo9mNIh-13" value="Localization:Pose" style="endArrow=classic;html=1;verticalAlign=top;entryX=0;entryY=0.703;entryDx=0;entryDy=0;entryPerimeter=0;dashed=1;" parent="DH1eQhOb8WWBndo9mNIh-0" edge="1">
          <mxGeometry width="50" height="50" relative="1" as="geometry">
            <mxPoint y="940.04" as="sourcePoint" />
            <mxPoint x="220" y="940.0049999999999" as="targetPoint" />
          </mxGeometry>
        </mxCell>
        <mxCell id="DH1eQhOb8WWBndo9mNIh-14" value="Sensors:Image" style="endArrow=classic;html=1;verticalAlign=top;entryX=0;entryY=0.703;entryDx=0;entryDy=0;entryPerimeter=0;dashed=1;" parent="DH1eQhOb8WWBndo9mNIh-0" edge="1">
          <mxGeometry width="50" height="50" relative="1" as="geometry">
            <mxPoint y="1020.04" as="sourcePoint" />
            <mxPoint x="220" y="1020.0050000000001" as="targetPoint" />
          </mxGeometry>
        </mxCell>
        <mxCell id="DH1eQhOb8WWBndo9mNIh-15" value="?List of Obstacles" style="endArrow=classic;html=1;verticalAlign=top;dashed=1;" parent="DH1eQhOb8WWBndo9mNIh-0" edge="1">
          <mxGeometry width="50" height="50" relative="1" as="geometry">
            <mxPoint x="440" y="980.04" as="sourcePoint" />
            <mxPoint x="1010" y="980" as="targetPoint" />
          </mxGeometry>
        </mxCell>
        <mxCell id="mfzmOE0VjFdptYuKclqx-0" value="" style="shape=image;html=1;verticalAlign=top;verticalLabelPosition=bottom;labelBackgroundColor=#ffffff;imageAspect=0;aspect=fixed;image=https://cdn0.iconfinder.com/data/icons/gradient-runded-glowing-icons/128/plus_2.png;fontColor=#FF0000;strokeWidth=15;" parent="DH1eQhOb8WWBndo9mNIh-0" vertex="1">
          <mxGeometry x="390" y="585" width="50" height="50" as="geometry" />
        </mxCell>
        <mxCell id="mfzmOE0VjFdptYuKclqx-1" value="" style="shape=image;html=1;verticalAlign=top;verticalLabelPosition=bottom;labelBackgroundColor=#ffffff;imageAspect=0;aspect=fixed;image=https://cdn0.iconfinder.com/data/icons/gradient-runded-glowing-icons/128/plus_2.png;fontColor=#FF0000;strokeWidth=15;" parent="DH1eQhOb8WWBndo9mNIh-0" vertex="1">
          <mxGeometry x="390" y="795" width="50" height="50" as="geometry" />
        </mxCell>
        <mxCell id="mfzmOE0VjFdptYuKclqx-2" value="" style="shape=image;html=1;verticalAlign=top;verticalLabelPosition=bottom;labelBackgroundColor=#ffffff;imageAspect=0;aspect=fixed;image=https://cdn0.iconfinder.com/data/icons/gradient-runded-glowing-icons/128/plus_2.png;fontColor=#FF0000;strokeWidth=15;" parent="DH1eQhOb8WWBndo9mNIh-0" vertex="1">
          <mxGeometry x="390" y="1005" width="50" height="50" as="geometry" />
        </mxCell>
        <mxCell id="FXdyS--1HB8vWDOIvtNe-0" value="" style="shape=image;html=1;verticalAlign=top;verticalLabelPosition=bottom;labelBackgroundColor=#ffffff;imageAspect=0;aspect=fixed;image=https://cdn2.iconfinder.com/data/icons/circle-icons-1/64/caution-128.png;fontColor=#FF0000;strokeWidth=15;" parent="DH1eQhOb8WWBndo9mNIh-0" vertex="1">
          <mxGeometry x="393" y="391" width="44" height="44" as="geometry" />
        </mxCell>
        <mxCell id="DH1eQhOb8WWBndo9mNIh-16" value="Sensors:Image" style="endArrow=classic;html=1;verticalAlign=top;entryX=0;entryY=0.703;entryDx=0;entryDy=0;entryPerimeter=0;dashed=1;" parent="QLuwI2l5bgubQDhfUA6r-1" target="DH1eQhOb8WWBndo9mNIh-6" edge="1">
          <mxGeometry width="50" height="50" relative="1" as="geometry">
            <mxPoint x="2030" y="519" as="sourcePoint" />
            <mxPoint x="2260" y="326.25" as="targetPoint" />
          </mxGeometry>
        </mxCell>
        <mxCell id="DH1eQhOb8WWBndo9mNIh-17" value="Sensors:Image" style="endArrow=classic;html=1;verticalAlign=top;entryX=0;entryY=0.703;entryDx=0;entryDy=0;entryPerimeter=0;dashed=1;" parent="QLuwI2l5bgubQDhfUA6r-1" edge="1">
          <mxGeometry width="50" height="50" relative="1" as="geometry">
            <mxPoint x="2030" y="740.04" as="sourcePoint" />
            <mxPoint x="2250" y="740.0050000000001" as="targetPoint" />
          </mxGeometry>
        </mxCell>
        <mxCell id="DH1eQhOb8WWBndo9mNIh-18" value="Localization:Pose" style="endArrow=classic;html=1;verticalAlign=top;entryX=0;entryY=0.703;entryDx=0;entryDy=0;entryPerimeter=0;dashed=1;" parent="QLuwI2l5bgubQDhfUA6r-1" edge="1">
          <mxGeometry width="50" height="50" relative="1" as="geometry">
            <mxPoint x="2030" y="660.04" as="sourcePoint" />
            <mxPoint x="2250" y="660.0049999999999" as="targetPoint" />
          </mxGeometry>
        </mxCell>
        <mxCell id="DH1eQhOb8WWBndo9mNIh-19" value="Localization:Pose" style="endArrow=classic;html=1;verticalAlign=top;entryX=0;entryY=0.703;entryDx=0;entryDy=0;entryPerimeter=0;dashed=1;fixDash=0;snapToPoint=0;" parent="QLuwI2l5bgubQDhfUA6r-1" edge="1">
          <mxGeometry width="50" height="50" relative="1" as="geometry">
            <mxPoint x="2030" y="860.04" as="sourcePoint" />
            <mxPoint x="2250" y="860.0050000000001" as="targetPoint" />
          </mxGeometry>
        </mxCell>
        <mxCell id="DH1eQhOb8WWBndo9mNIh-20" value="Sensors:Image" style="endArrow=classic;html=1;verticalAlign=top;entryX=0;entryY=0.703;entryDx=0;entryDy=0;entryPerimeter=0;dashed=1;" parent="QLuwI2l5bgubQDhfUA6r-1" edge="1">
          <mxGeometry width="50" height="50" relative="1" as="geometry">
            <mxPoint x="2030" y="940.04" as="sourcePoint" />
            <mxPoint x="2250" y="940.0050000000001" as="targetPoint" />
          </mxGeometry>
        </mxCell>
        <mxCell id="DH1eQhOb8WWBndo9mNIh-21" value="?List of Points" style="endArrow=classic;html=1;verticalAlign=top;dashed=1;" parent="QLuwI2l5bgubQDhfUA6r-1" edge="1">
          <mxGeometry width="50" height="50" relative="1" as="geometry">
            <mxPoint x="2470" y="900.04" as="sourcePoint" />
            <mxPoint x="3040" y="900" as="targetPoint" />
          </mxGeometry>
        </mxCell>
        <UserObject label="Localization" link="data:page/id,JPMW2gzQvGPrBKrfu0p5" id="zZvEYiOXlH_DtqoWvpNt-0">
          <mxCell style="swimlane;fillColor=#ffe6cc;strokeColor=#d79b00;fontSize=24;strokeWidth=5;" parent="QLuwI2l5bgubQDhfUA6r-1" vertex="1">
            <mxGeometry x="3760" y="-900" width="1010" height="640" as="geometry">
              <mxRectangle x="1750" y="200" width="180" height="23" as="alternateBounds" />
            </mxGeometry>
          </mxCell>
        </UserObject>
        <mxCell id="zZvEYiOXlH_DtqoWvpNt-1" value="&lt;font style=&quot;font-size: 24px&quot;&gt;Extended Kalman Filter&lt;br&gt;&lt;/font&gt;" style="whiteSpace=wrap;html=1;fillColor=#dae8fc;strokeColor=#6c8ebf;" parent="zZvEYiOXlH_DtqoWvpNt-0" vertex="1">
          <mxGeometry x="530" y="70" width="220" height="155" as="geometry" />
        </mxCell>
        <mxCell id="zZvEYiOXlH_DtqoWvpNt-2" value="Sensors:Wheel or Sensors:Visual Odometry" style="endArrow=classic;html=1;verticalAlign=top;" parent="zZvEYiOXlH_DtqoWvpNt-0" edge="1">
          <mxGeometry width="50" height="50" relative="1" as="geometry">
            <mxPoint y="190" as="sourcePoint" />
            <mxPoint x="530" y="190" as="targetPoint" />
          </mxGeometry>
        </mxCell>
        <mxCell id="zZvEYiOXlH_DtqoWvpNt-3" value="Filtered Odometry" style="endArrow=classic;html=1;verticalAlign=top;" parent="zZvEYiOXlH_DtqoWvpNt-0" edge="1">
          <mxGeometry width="50" height="50" relative="1" as="geometry">
            <mxPoint x="750" y="145" as="sourcePoint" />
            <mxPoint x="1010" y="145" as="targetPoint" />
          </mxGeometry>
        </mxCell>
        <mxCell id="zZvEYiOXlH_DtqoWvpNt-4" value="Sensors:IMU" style="endArrow=classic;html=1;verticalAlign=top;entryX=0;entryY=0.25;entryDx=0;entryDy=0;" parent="zZvEYiOXlH_DtqoWvpNt-0" target="zZvEYiOXlH_DtqoWvpNt-1" edge="1">
          <mxGeometry width="50" height="50" relative="1" as="geometry">
            <mxPoint y="109" as="sourcePoint" />
            <mxPoint x="100" y="143" as="targetPoint" />
          </mxGeometry>
        </mxCell>
        <mxCell id="zZvEYiOXlH_DtqoWvpNt-5" value="&lt;div&gt;&lt;font style=&quot;font-size: 24px&quot;&gt;Extended Kalman Filter&lt;/font&gt;&lt;/div&gt;" style="whiteSpace=wrap;html=1;fillColor=#dae8fc;strokeColor=#6c8ebf;" parent="zZvEYiOXlH_DtqoWvpNt-0" vertex="1">
          <mxGeometry x="530.98" y="351" width="220" height="155" as="geometry" />
        </mxCell>
        <mxCell id="zZvEYiOXlH_DtqoWvpNt-6" value="Global Pose Estimate" style="endArrow=classic;html=1;verticalAlign=top;" parent="zZvEYiOXlH_DtqoWvpNt-0" edge="1">
          <mxGeometry width="50" height="50" relative="1" as="geometry">
            <mxPoint x="752" y="428" as="sourcePoint" />
            <mxPoint x="1011.98" y="428" as="targetPoint" />
          </mxGeometry>
        </mxCell>
        <mxCell id="zZvEYiOXlH_DtqoWvpNt-7" value="&lt;div&gt;&lt;font style=&quot;font-size: 24px&quot;&gt;Feature Referencing&lt;br&gt;&lt;/font&gt;&lt;/div&gt;" style="whiteSpace=wrap;html=1;fillColor=#f5f5f5;strokeColor=#666666;fontColor=#333333;" parent="zZvEYiOXlH_DtqoWvpNt-0" vertex="1">
          <mxGeometry x="201.98" y="460" width="200" height="110" as="geometry" />
        </mxCell>
        <mxCell id="zZvEYiOXlH_DtqoWvpNt-8" value="Feature Detection:Feature List" style="endArrow=classic;html=1;verticalAlign=top;dashed=1;" parent="zZvEYiOXlH_DtqoWvpNt-0" edge="1">
          <mxGeometry width="50" height="50" relative="1" as="geometry">
            <mxPoint x="1.98" y="489.5" as="sourcePoint" />
            <mxPoint x="201.98" y="488" as="targetPoint" />
          </mxGeometry>
        </mxCell>
        <mxCell id="zZvEYiOXlH_DtqoWvpNt-9" value="Sensors:Wheel or Sensors:Visual Odometry" style="endArrow=classic;html=1;verticalAlign=top;entryX=-0.009;entryY=0.316;entryDx=0;entryDy=0;entryPerimeter=0;" parent="zZvEYiOXlH_DtqoWvpNt-0" edge="1">
          <mxGeometry x="2190" y="507" width="50" height="50" as="geometry">
            <mxPoint x="1.9800000000000182" y="400" as="sourcePoint" />
            <mxPoint x="530" y="399.98" as="targetPoint" />
          </mxGeometry>
        </mxCell>
        <mxCell id="zZvEYiOXlH_DtqoWvpNt-10" value="Sensors:IMU" style="endArrow=classic;html=1;verticalAlign=top;" parent="zZvEYiOXlH_DtqoWvpNt-0" edge="1">
          <mxGeometry x="2190" y="501" width="50" height="50" as="geometry">
            <mxPoint y="371.25" as="sourcePoint" />
            <mxPoint x="531.98" y="371" as="targetPoint" />
          </mxGeometry>
        </mxCell>
        <mxCell id="zZvEYiOXlH_DtqoWvpNt-11" value="Sensors:GPS or Sensors:RTK" style="endArrow=classic;html=1;verticalAlign=top;entryX=-0.009;entryY=0.316;entryDx=0;entryDy=0;entryPerimeter=0;" parent="zZvEYiOXlH_DtqoWvpNt-0" edge="1">
          <mxGeometry x="2190" y="508" width="50" height="50" as="geometry">
            <mxPoint x="3.9600000000000364" y="429.02" as="sourcePoint" />
            <mxPoint x="531.98" y="429" as="targetPoint" />
            <mxPoint as="offset" />
          </mxGeometry>
        </mxCell>
        <mxCell id="J6X12LjqvoAIip8XV0Sk-0" value="" style="shape=image;html=1;verticalAlign=top;verticalLabelPosition=bottom;labelBackgroundColor=#ffffff;imageAspect=0;aspect=fixed;image=https://cdn0.iconfinder.com/data/icons/gradient-runded-glowing-icons/128/plus_2.png;fontColor=#FF0000;strokeWidth=15;" parent="zZvEYiOXlH_DtqoWvpNt-0" vertex="1">
          <mxGeometry x="371.97999999999956" y="540" width="30" height="30" as="geometry" />
        </mxCell>
        <mxCell id="zZvEYiOXlH_DtqoWvpNt-12" value="?Referenced Feature" style="endArrow=classic;html=1;verticalAlign=top;dashed=1;" parent="QLuwI2l5bgubQDhfUA6r-1" edge="1">
          <mxGeometry width="50" height="50" relative="1" as="geometry">
            <mxPoint x="4161.98" y="-427" as="sourcePoint" />
            <mxPoint x="4291.98" y="-427.5" as="targetPoint" />
          </mxGeometry>
        </mxCell>
        <mxCell id="zZvEYiOXlH_DtqoWvpNt-13" value="?Mapping:Offline Map" style="endArrow=classic;html=1;verticalAlign=top;bendable=1;dashed=1;" parent="QLuwI2l5bgubQDhfUA6r-1" edge="1">
          <mxGeometry x="-0.0199" width="50" height="50" relative="1" as="geometry">
            <mxPoint x="3762" y="-360" as="sourcePoint" />
            <mxPoint x="3961.98" y="-360" as="targetPoint" />
            <mxPoint as="offset" />
          </mxGeometry>
        </mxCell>
        <UserObject label="Mapping" link="data:page/id,a-RNjdHXBQ174pXRn1Qw" id="ShH-11s7ilbwTWsC4aUN-0">
          <mxCell style="swimlane;fillColor=#ffe6cc;strokeColor=#d79b00;fontSize=24;strokeWidth=5;perimeterSpacing=4;" parent="QLuwI2l5bgubQDhfUA6r-1" vertex="1">
            <mxGeometry x="3950" y="130" width="1350" height="930" as="geometry">
              <mxRectangle x="1750" y="200" width="180" height="23" as="alternateBounds" />
            </mxGeometry>
          </mxCell>
        </UserObject>
        <mxCell id="ShH-11s7ilbwTWsC4aUN-1" value="Elevation Layer" style="edgeStyle=orthogonalEdgeStyle;rounded=0;orthogonalLoop=1;jettySize=auto;html=0;verticalAlign=top;" parent="ShH-11s7ilbwTWsC4aUN-0" source="ShH-11s7ilbwTWsC4aUN-2" target="ShH-11s7ilbwTWsC4aUN-4" edge="1">
          <mxGeometry relative="1" as="geometry" />
        </mxCell>
        <mxCell id="ShH-11s7ilbwTWsC4aUN-2" value="&lt;font style=&quot;font-size: 24px&quot;&gt;Elevation mapping&lt;/font&gt;" style="whiteSpace=wrap;html=1;fillColor=#dae8fc;strokeColor=#6c8ebf;" parent="ShH-11s7ilbwTWsC4aUN-0" vertex="1">
          <mxGeometry x="160" y="55" width="220" height="155" as="geometry" />
        </mxCell>
        <mxCell id="ShH-11s7ilbwTWsC4aUN-3" value="Traversability Layers" style="edgeStyle=orthogonalEdgeStyle;rounded=0;orthogonalLoop=1;jettySize=auto;html=0;verticalAlign=top;" parent="ShH-11s7ilbwTWsC4aUN-0" source="ShH-11s7ilbwTWsC4aUN-4" edge="1">
          <mxGeometry relative="1" as="geometry">
            <mxPoint x="1019" y="133" as="targetPoint" />
          </mxGeometry>
        </mxCell>
        <mxCell id="ShH-11s7ilbwTWsC4aUN-4" value="&lt;font style=&quot;font-size: 24px&quot;&gt;Traversability mapping&lt;/font&gt;" style="whiteSpace=wrap;html=1;fillColor=#dae8fc;strokeColor=#6c8ebf;" parent="ShH-11s7ilbwTWsC4aUN-0" vertex="1">
          <mxGeometry x="550" y="55" width="220" height="155" as="geometry" />
        </mxCell>
        <mxCell id="ShH-11s7ilbwTWsC4aUN-5" value="Sensors:Point Cloud" style="endArrow=classic;html=1;verticalAlign=top;entryX=0;entryY=0.75;entryDx=0;entryDy=0;" parent="ShH-11s7ilbwTWsC4aUN-0" target="ShH-11s7ilbwTWsC4aUN-2" edge="1">
          <mxGeometry width="50" height="50" relative="1" as="geometry">
            <mxPoint y="171" as="sourcePoint" />
            <mxPoint x="90" y="133" as="targetPoint" />
          </mxGeometry>
        </mxCell>
        <mxCell id="ShH-11s7ilbwTWsC4aUN-6" value="&lt;font style=&quot;font-size: 24px&quot;&gt;Local costmap&lt;/font&gt;" style="whiteSpace=wrap;html=1;fillColor=#dae8fc;strokeColor=#6c8ebf;" parent="ShH-11s7ilbwTWsC4aUN-0" vertex="1">
          <mxGeometry x="1020" y="55" width="220" height="265" as="geometry" />
        </mxCell>
        <mxCell id="ShH-11s7ilbwTWsC4aUN-7" value="Elevation Layer" style="endArrow=classic;html=1;verticalAlign=top;exitX=0.5;exitY=1;exitDx=0;exitDy=0;entryX=-0.005;entryY=0.702;entryDx=0;entryDy=0;entryPerimeter=0;edgeStyle=orthogonalEdgeStyle;" parent="ShH-11s7ilbwTWsC4aUN-0" source="ShH-11s7ilbwTWsC4aUN-2" target="ShH-11s7ilbwTWsC4aUN-6" edge="1">
          <mxGeometry width="50" height="50" relative="1" as="geometry">
            <mxPoint x="60" y="-130" as="sourcePoint" />
            <mxPoint x="110" y="-180" as="targetPoint" />
          </mxGeometry>
        </mxCell>
        <mxCell id="ShH-11s7ilbwTWsC4aUN-8" value="&lt;font style=&quot;font-size: 24px&quot;&gt;Global Feature Map Fusion&lt;/font&gt;" style="whiteSpace=wrap;html=1;fillColor=#dae8fc;strokeColor=#6c8ebf;" parent="ShH-11s7ilbwTWsC4aUN-0" vertex="1">
          <mxGeometry x="160" y="440" width="220" height="155" as="geometry" />
        </mxCell>
        <mxCell id="ShH-11s7ilbwTWsC4aUN-9" value="Feature Detection:Feature List" style="endArrow=classic;html=1;verticalAlign=top;entryX=0;entryY=0.75;entryDx=0;entryDy=0;" parent="ShH-11s7ilbwTWsC4aUN-0" target="ShH-11s7ilbwTWsC4aUN-8" edge="1">
          <mxGeometry width="50" height="50" relative="1" as="geometry">
            <mxPoint y="556" as="sourcePoint" />
            <mxPoint x="20" y="-70" as="targetPoint" />
          </mxGeometry>
        </mxCell>
        <mxCell id="ShH-11s7ilbwTWsC4aUN-10" value="Localization:Pose" style="endArrow=classic;html=1;verticalAlign=top;entryX=0;entryY=0.25;entryDx=0;entryDy=0;" parent="ShH-11s7ilbwTWsC4aUN-0" target="ShH-11s7ilbwTWsC4aUN-2" edge="1">
          <mxGeometry width="50" height="50" relative="1" as="geometry">
            <mxPoint y="94" as="sourcePoint" />
            <mxPoint x="100" y="143" as="targetPoint" />
          </mxGeometry>
        </mxCell>
        <mxCell id="ShH-11s7ilbwTWsC4aUN-11" value="Localization:Pose" style="endArrow=classic;html=1;verticalAlign=top;entryX=0;entryY=0.25;entryDx=0;entryDy=0;" parent="ShH-11s7ilbwTWsC4aUN-0" target="ShH-11s7ilbwTWsC4aUN-8" edge="1">
          <mxGeometry width="50" height="50" relative="1" as="geometry">
            <mxPoint y="479" as="sourcePoint" />
            <mxPoint x="100" y="527.7750000000001" as="targetPoint" />
          </mxGeometry>
        </mxCell>
        <mxCell id="ShH-11s7ilbwTWsC4aUN-12" value="Feature Detection:Feature List" style="endArrow=classic;html=1;verticalAlign=top;entryX=-0.005;entryY=0.921;entryDx=0;entryDy=0;entryPerimeter=0;dashed=1;" parent="ShH-11s7ilbwTWsC4aUN-0" target="ShH-11s7ilbwTWsC4aUN-6" edge="1">
          <mxGeometry width="50" height="50" relative="1" as="geometry">
            <mxPoint y="299" as="sourcePoint" />
            <mxPoint x="100" y="566.25" as="targetPoint" />
          </mxGeometry>
        </mxCell>
        <mxCell id="ShH-11s7ilbwTWsC4aUN-13" value="&lt;font style=&quot;font-size: 24px&quot;&gt;Field Position State Graph/Map&lt;br&gt;&lt;/font&gt;" style="whiteSpace=wrap;html=1;fillColor=#f5f5f5;strokeColor=#666666;fontColor=#333333;" parent="ShH-11s7ilbwTWsC4aUN-0" vertex="1">
          <mxGeometry x="160" y="690" width="220" height="155" as="geometry" />
        </mxCell>
        <mxCell id="ShH-11s7ilbwTWsC4aUN-14" value="&lt;div&gt;Costmap&lt;/div&gt;" style="endArrow=classic;html=1;verticalAlign=top;exitX=1;exitY=0.5;exitDx=0;exitDy=0;" parent="ShH-11s7ilbwTWsC4aUN-0" source="ShH-11s7ilbwTWsC4aUN-6" edge="1">
          <mxGeometry width="50" height="50" relative="1" as="geometry">
            <mxPoint x="330" y="230" as="sourcePoint" />
            <mxPoint x="1350" y="188" as="targetPoint" />
          </mxGeometry>
        </mxCell>
        <mxCell id="SJPcz4tk-MOhzfkZbXJC-0" value="" style="shape=image;html=1;verticalAlign=top;verticalLabelPosition=bottom;labelBackgroundColor=#ffffff;imageAspect=0;aspect=fixed;image=https://cdn0.iconfinder.com/data/icons/gradient-runded-glowing-icons/128/plus_2.png;fontColor=#FF0000;strokeWidth=15;" parent="ShH-11s7ilbwTWsC4aUN-0" vertex="1">
          <mxGeometry x="330" y="795" width="50" height="50" as="geometry" />
        </mxCell>
        <mxCell id="ShH-11s7ilbwTWsC4aUN-15" value="Global Feature Map" style="endArrow=classic;html=1;verticalAlign=top;exitX=1;exitY=0.5;exitDx=0;exitDy=0;" parent="QLuwI2l5bgubQDhfUA6r-1" source="ShH-11s7ilbwTWsC4aUN-8" edge="1">
          <mxGeometry width="50" height="50" relative="1" as="geometry">
            <mxPoint x="5130" y="327.5" as="sourcePoint" />
            <mxPoint x="5300" y="648" as="targetPoint" />
          </mxGeometry>
        </mxCell>
        <mxCell id="cIq7TIGJhx3SJ_wpde6h-0" value="&amp;nbsp;" style="text;whiteSpace=wrap;html=1;fontColor=#FF0000;" parent="QLuwI2l5bgubQDhfUA6r-1" vertex="1">
          <mxGeometry x="1270" y="-1060" width="30" height="30" as="geometry" />
        </mxCell>
      </root>
    </mxGraphModel>
  </diagram>
  <diagram id="-KKOEtGZJ8pCZJSewmnd" name="#2 Perception">
    <mxGraphModel dx="1929" dy="1131" grid="1" gridSize="10" guides="1" tooltips="1" connect="1" arrows="1" fold="1" page="1" pageScale="1" pageWidth="850" pageHeight="1100" math="0" shadow="0">
      <root>
        <mxCell id="lRuBUmgEKV64QayyJ7JQ-0" />
        <mxCell id="lRuBUmgEKV64QayyJ7JQ-1" parent="lRuBUmgEKV64QayyJ7JQ-0" />
        <UserObject label="Perception" link="data:page/id,prtHgNgQTEPvFCAcTncT" id="_eLtfKd7v0wduDapJZ7g-0">
          <mxCell style="swimlane;fillColor=#d5e8d4;strokeColor=#82b366;fontSize=24;strokeWidth=5;startSize=23;" parent="lRuBUmgEKV64QayyJ7JQ-1" vertex="1">
            <mxGeometry x="690" y="90" width="1060" height="760" as="geometry">
              <mxRectangle x="220" y="500" width="180" height="23" as="alternateBounds" />
            </mxGeometry>
          </mxCell>
        </UserObject>
        <UserObject label="&lt;font style=&quot;font-size: 24px&quot;&gt;Feature detection&lt;/font&gt;" link="data:page/id,IOYLnJJ4BgAqwaHzsp6H" id="_eLtfKd7v0wduDapJZ7g-2">
          <mxCell style="whiteSpace=wrap;html=1;fillColor=#ffe6cc;strokeColor=#d79b00;" parent="_eLtfKd7v0wduDapJZ7g-0" vertex="1">
            <mxGeometry x="370" y="60" width="310" height="230" as="geometry" />
          </mxCell>
        </UserObject>
        <mxCell id="_eLtfKd7v0wduDapJZ7g-4" value="" style="endArrow=classic;html=1;entryX=0;entryY=0.5;entryDx=0;entryDy=0;strokeWidth=4;" parent="_eLtfKd7v0wduDapJZ7g-0" target="_eLtfKd7v0wduDapJZ7g-2" edge="1">
          <mxGeometry width="50" height="50" relative="1" as="geometry">
            <mxPoint y="175" as="sourcePoint" />
            <mxPoint x="50" y="75" as="targetPoint" />
          </mxGeometry>
        </mxCell>
        <mxCell id="P295n2bNCZh4Rxb_0d2A-0" value="" style="endArrow=classic;html=1;strokeWidth=4;exitX=1;exitY=0.5;exitDx=0;exitDy=0;edgeStyle=elbowEdgeStyle;" parent="_eLtfKd7v0wduDapJZ7g-0" source="_eLtfKd7v0wduDapJZ7g-2" edge="1">
          <mxGeometry width="50" height="50" relative="1" as="geometry">
            <mxPoint x="10" y="185" as="sourcePoint" />
            <mxPoint x="1060" y="175" as="targetPoint" />
          </mxGeometry>
        </mxCell>
      </root>
    </mxGraphModel>
  </diagram>
  <diagram id="ldTAqI2T-_zdcecsA4YL" name="#2 Localization and Mapping">
    <mxGraphModel dx="2250" dy="1320" grid="1" gridSize="10" guides="1" tooltips="1" connect="0" arrows="1" fold="1" page="1" pageScale="1" pageWidth="1600" pageHeight="900" math="0" shadow="0">
      <root>
        <mxCell id="GfsLmEvaizO0xj4gn3vc-0" />
        <mxCell id="GfsLmEvaizO0xj4gn3vc-1" parent="GfsLmEvaizO0xj4gn3vc-0" />
        <UserObject label="Mapping and Localization" link="data:page/id,prtHgNgQTEPvFCAcTncT" id="GfsLmEvaizO0xj4gn3vc-2">
          <mxCell style="swimlane;fillColor=#d5e8d4;strokeColor=#82b366;fontSize=24;strokeWidth=5;" parent="GfsLmEvaizO0xj4gn3vc-1" vertex="1">
            <mxGeometry x="270" y="40" width="1060" height="960" as="geometry">
              <mxRectangle x="220" y="500" width="180" height="23" as="alternateBounds" />
            </mxGeometry>
          </mxCell>
        </UserObject>
        <mxCell id="GfsLmEvaizO0xj4gn3vc-3" value="" style="endArrow=classic;entryX=0;entryY=0.5;entryDx=0;entryDy=0;verticalAlign=top;horizontal=1;strokeWidth=4;" parent="GfsLmEvaizO0xj4gn3vc-2" target="GfsLmEvaizO0xj4gn3vc-5" edge="1">
          <mxGeometry width="50" height="50" relative="1" as="geometry">
            <mxPoint y="505" as="sourcePoint" />
            <mxPoint x="490" y="-180" as="targetPoint" />
          </mxGeometry>
        </mxCell>
        <UserObject label="&lt;font style=&quot;font-size: 24px&quot;&gt;Localization&lt;/font&gt;" link="data:page/id,JPMW2gzQvGPrBKrfu0p5" id="GfsLmEvaizO0xj4gn3vc-4">
          <mxCell style="whiteSpace=wrap;html=1;fillColor=#ffe6cc;strokeColor=#d79b00;" parent="GfsLmEvaizO0xj4gn3vc-2" vertex="1">
            <mxGeometry x="500" y="60" width="310" height="230" as="geometry" />
          </mxCell>
        </UserObject>
        <UserObject label="&lt;font style=&quot;font-size: 24px&quot;&gt;Mapping&lt;/font&gt;" link="data:page/id,a-RNjdHXBQ174pXRn1Qw" id="GfsLmEvaizO0xj4gn3vc-5">
          <mxCell style="whiteSpace=wrap;html=1;fillColor=#ffe6cc;strokeColor=#d79b00;" parent="GfsLmEvaizO0xj4gn3vc-2" vertex="1">
            <mxGeometry x="500" y="390" width="310" height="230" as="geometry" />
          </mxCell>
        </UserObject>
        <mxCell id="GfsLmEvaizO0xj4gn3vc-6" value="" style="endArrow=classic;html=1;entryX=0;entryY=0.5;entryDx=0;entryDy=0;strokeWidth=4;" parent="GfsLmEvaizO0xj4gn3vc-2" target="GfsLmEvaizO0xj4gn3vc-4" edge="1">
          <mxGeometry width="50" height="50" relative="1" as="geometry">
            <mxPoint y="175" as="sourcePoint" />
            <mxPoint x="50" y="75" as="targetPoint" />
          </mxGeometry>
        </mxCell>
        <mxCell id="GfsLmEvaizO0xj4gn3vc-7" value="" style="endArrow=classic;html=1;exitX=0.232;exitY=1.009;exitDx=0;exitDy=0;strokeWidth=4;exitPerimeter=0;entryX=0.235;entryY=0.004;entryDx=0;entryDy=0;entryPerimeter=0;" parent="GfsLmEvaizO0xj4gn3vc-2" source="GfsLmEvaizO0xj4gn3vc-4" target="GfsLmEvaizO0xj4gn3vc-5" edge="1">
          <mxGeometry width="50" height="50" relative="1" as="geometry">
            <mxPoint x="1040" y="170" as="sourcePoint" />
            <mxPoint x="1090" y="120" as="targetPoint" />
            <Array as="points" />
          </mxGeometry>
        </mxCell>
        <mxCell id="NlW17dGzJixS3HYvsq4S-0" style="edgeStyle=elbowEdgeStyle;rounded=0;orthogonalLoop=1;jettySize=auto;html=0;verticalAlign=top;strokeWidth=4;exitX=1.006;exitY=0.496;exitDx=0;exitDy=0;exitPerimeter=0;" parent="GfsLmEvaizO0xj4gn3vc-2" source="GfsLmEvaizO0xj4gn3vc-4" edge="1">
          <mxGeometry relative="1" as="geometry">
            <mxPoint x="1060" y="174" as="targetPoint" />
            <mxPoint x="420" y="173" as="sourcePoint" />
          </mxGeometry>
        </mxCell>
        <mxCell id="NlW17dGzJixS3HYvsq4S-1" style="edgeStyle=orthogonalEdgeStyle;rounded=0;orthogonalLoop=1;jettySize=auto;html=0;verticalAlign=top;exitX=1;exitY=0.5;exitDx=0;exitDy=0;strokeWidth=4;" parent="GfsLmEvaizO0xj4gn3vc-2" source="GfsLmEvaizO0xj4gn3vc-5" edge="1">
          <mxGeometry relative="1" as="geometry">
            <mxPoint x="1060" y="505" as="targetPoint" />
            <mxPoint x="290" y="610" as="sourcePoint" />
          </mxGeometry>
        </mxCell>
        <mxCell id="l_sfnI19ej00lLkK3Fos-2" value="" style="endArrow=classic;html=1;entryX=0.739;entryY=1.013;entryDx=0;entryDy=0;strokeWidth=4;entryPerimeter=0;dashed=1;" parent="GfsLmEvaizO0xj4gn3vc-2" target="GfsLmEvaizO0xj4gn3vc-4" edge="1">
          <mxGeometry width="50" height="50" relative="1" as="geometry">
            <mxPoint x="729" y="386" as="sourcePoint" />
            <mxPoint x="720" y="289.9999999999999" as="targetPoint" />
            <Array as="points" />
          </mxGeometry>
        </mxCell>
        <UserObject label="&lt;font style=&quot;font-size: 24px&quot;&gt;SLAM&lt;/font&gt;" id="bIdZPqV3TKbJ7cE6pW2G-0">
          <mxCell style="whiteSpace=wrap;html=1;fillColor=#f5f5f5;strokeColor=#666666;fontColor=#333333;" parent="GfsLmEvaizO0xj4gn3vc-2" vertex="1">
            <mxGeometry x="500" y="680" width="310" height="230" as="geometry" />
          </mxCell>
        </UserObject>
        <mxCell id="wJIIMxvbwiMTxMPEtuWj-0" value="" style="endArrow=classic;entryX=-0.003;entryY=0.5;entryDx=0;entryDy=0;verticalAlign=top;horizontal=1;strokeWidth=4;entryPerimeter=0;dashed=1;" parent="GfsLmEvaizO0xj4gn3vc-2" target="bIdZPqV3TKbJ7cE6pW2G-0" edge="1">
          <mxGeometry width="50" height="50" relative="1" as="geometry">
            <mxPoint y="795" as="sourcePoint" />
            <mxPoint x="100" y="515" as="targetPoint" />
          </mxGeometry>
        </mxCell>
        <mxCell id="wJIIMxvbwiMTxMPEtuWj-1" style="edgeStyle=orthogonalEdgeStyle;rounded=0;orthogonalLoop=1;jettySize=auto;html=0;verticalAlign=top;exitX=1;exitY=0.5;exitDx=0;exitDy=0;strokeWidth=4;exitPerimeter=0;dashed=1;" parent="GfsLmEvaizO0xj4gn3vc-2" source="bIdZPqV3TKbJ7cE6pW2G-0" edge="1">
          <mxGeometry relative="1" as="geometry">
            <mxPoint x="1060" y="795" as="targetPoint" />
            <mxPoint x="410" y="515" as="sourcePoint" />
          </mxGeometry>
        </mxCell>
        <mxCell id="iyFiXB87ruHrWR4XZDS8-0" value="" style="shape=image;html=1;verticalAlign=top;verticalLabelPosition=bottom;labelBackgroundColor=#ffffff;imageAspect=0;aspect=fixed;image=https://cdn0.iconfinder.com/data/icons/gradient-runded-glowing-icons/128/plus_2.png;fontColor=#FF0000;strokeWidth=15;" parent="GfsLmEvaizO0xj4gn3vc-2" vertex="1">
          <mxGeometry x="740" y="840" width="70" height="70" as="geometry" />
        </mxCell>
        <UserObject label="&lt;div&gt;&lt;font style=&quot;font-size: 24px&quot;&gt;Odometry&lt;/font&gt;&lt;/div&gt;" link="data:page/id,a8lF55s-MSeGZywUDsS5" id="F0YhoiGI4yIGGbkIY_Q3-0">
          <mxCell style="whiteSpace=wrap;html=1;fillColor=#ffe6cc;strokeColor=#d79b00;" parent="GfsLmEvaizO0xj4gn3vc-2" vertex="1">
            <mxGeometry x="120" y="220" width="200" height="140" as="geometry" />
          </mxCell>
        </UserObject>
        <mxCell id="F0YhoiGI4yIGGbkIY_Q3-2" value="" style="endArrow=classic;html=1;strokeWidth=4;exitX=1.012;exitY=0.519;exitDx=0;exitDy=0;exitPerimeter=0;edgeStyle=orthogonalEdgeStyle;entryX=-0.015;entryY=0.763;entryDx=0;entryDy=0;entryPerimeter=0;" parent="GfsLmEvaizO0xj4gn3vc-2" source="F0YhoiGI4yIGGbkIY_Q3-0" target="GfsLmEvaizO0xj4gn3vc-4" edge="1">
          <mxGeometry width="50" height="50" relative="1" as="geometry">
            <mxPoint x="460" y="360" as="sourcePoint" />
            <mxPoint x="440" y="293" as="targetPoint" />
          </mxGeometry>
        </mxCell>
        <mxCell id="F0YhoiGI4yIGGbkIY_Q3-1" value="" style="endArrow=classic;html=1;entryX=-0.011;entryY=0.515;entryDx=0;entryDy=0;strokeWidth=4;entryPerimeter=0;" parent="GfsLmEvaizO0xj4gn3vc-1" target="F0YhoiGI4yIGGbkIY_Q3-0" edge="1">
          <mxGeometry width="50" height="50" relative="1" as="geometry">
            <mxPoint x="270" y="332" as="sourcePoint" />
            <mxPoint x="780" y="225" as="targetPoint" />
          </mxGeometry>
        </mxCell>
      </root>
    </mxGraphModel>
  </diagram>
  <diagram name="#2 Planning and Control" id="5rZJDDQK4C5HfpNXJpXw">
    <mxGraphModel dx="1929" dy="1131" grid="1" gridSize="10" guides="1" tooltips="1" connect="0" arrows="1" fold="1" page="1" pageScale="1" pageWidth="1600" pageHeight="900" math="0" shadow="0">
      <root>
        <mxCell id="VRGdZAyFobiUbNPC_dE9-0" />
        <mxCell id="VRGdZAyFobiUbNPC_dE9-1" parent="VRGdZAyFobiUbNPC_dE9-0" />
        <UserObject label="Planning and Control" link="data:page/id,prtHgNgQTEPvFCAcTncT" id="VRGdZAyFobiUbNPC_dE9-2">
          <mxCell style="swimlane;fillColor=#d5e8d4;strokeColor=#82b366;fontSize=24;strokeWidth=5;" parent="VRGdZAyFobiUbNPC_dE9-1" vertex="1">
            <mxGeometry x="260" y="110" width="1060" height="1320" as="geometry">
              <mxRectangle x="220" y="500" width="180" height="23" as="alternateBounds" />
            </mxGeometry>
          </mxCell>
        </UserObject>
        <mxCell id="VRGdZAyFobiUbNPC_dE9-3" value="" style="endArrow=classic;entryX=0;entryY=0.5;entryDx=0;entryDy=0;verticalAlign=top;horizontal=1;strokeWidth=4;" parent="VRGdZAyFobiUbNPC_dE9-2" target="VRGdZAyFobiUbNPC_dE9-5" edge="1">
          <mxGeometry width="50" height="50" relative="1" as="geometry">
            <mxPoint y="505" as="sourcePoint" />
            <mxPoint x="490" y="-180" as="targetPoint" />
          </mxGeometry>
        </mxCell>
        <UserObject label="&lt;font style=&quot;font-size: 24px&quot;&gt;Mission Control &lt;br&gt;&lt;/font&gt;" id="VRGdZAyFobiUbNPC_dE9-4">
          <mxCell style="whiteSpace=wrap;html=1;fillColor=#f5f5f5;strokeColor=#666666;fontColor=#333333;" parent="VRGdZAyFobiUbNPC_dE9-2" vertex="1">
            <mxGeometry x="90" y="60" width="310" height="230" as="geometry" />
          </mxCell>
        </UserObject>
        <UserObject label="&lt;font style=&quot;font-size: 24px&quot;&gt;Global Planner&lt;/font&gt;" id="VRGdZAyFobiUbNPC_dE9-5">
          <mxCell style="whiteSpace=wrap;html=1;fillColor=#f5f5f5;strokeColor=#666666;fontColor=#333333;" parent="VRGdZAyFobiUbNPC_dE9-2" vertex="1">
            <mxGeometry x="90" y="390" width="310" height="230" as="geometry" />
          </mxCell>
        </UserObject>
        <mxCell id="VRGdZAyFobiUbNPC_dE9-6" value="" style="endArrow=classic;html=1;entryX=0;entryY=0.5;entryDx=0;entryDy=0;strokeWidth=4;" parent="VRGdZAyFobiUbNPC_dE9-2" target="VRGdZAyFobiUbNPC_dE9-4" edge="1">
          <mxGeometry width="50" height="50" relative="1" as="geometry">
            <mxPoint y="175" as="sourcePoint" />
            <mxPoint x="50" y="75" as="targetPoint" />
          </mxGeometry>
        </mxCell>
        <mxCell id="VRGdZAyFobiUbNPC_dE9-7" value="" style="endArrow=classic;html=1;exitX=0.232;exitY=1.009;exitDx=0;exitDy=0;strokeWidth=4;exitPerimeter=0;entryX=0.235;entryY=0.004;entryDx=0;entryDy=0;entryPerimeter=0;" parent="VRGdZAyFobiUbNPC_dE9-2" source="VRGdZAyFobiUbNPC_dE9-4" target="VRGdZAyFobiUbNPC_dE9-5" edge="1">
          <mxGeometry width="50" height="50" relative="1" as="geometry">
            <mxPoint x="630" y="170" as="sourcePoint" />
            <mxPoint x="680" y="120" as="targetPoint" />
            <Array as="points" />
          </mxGeometry>
        </mxCell>
        <mxCell id="VRGdZAyFobiUbNPC_dE9-8" style="edgeStyle=elbowEdgeStyle;rounded=0;orthogonalLoop=1;jettySize=auto;html=0;verticalAlign=top;strokeWidth=4;exitX=1.006;exitY=0.496;exitDx=0;exitDy=0;exitPerimeter=0;dashed=1;" parent="VRGdZAyFobiUbNPC_dE9-2" source="VRGdZAyFobiUbNPC_dE9-4" edge="1">
          <mxGeometry relative="1" as="geometry">
            <mxPoint x="1060" y="174" as="targetPoint" />
            <mxPoint x="420" y="173" as="sourcePoint" />
          </mxGeometry>
        </mxCell>
        <mxCell id="VRGdZAyFobiUbNPC_dE9-9" style="edgeStyle=orthogonalEdgeStyle;rounded=0;orthogonalLoop=1;jettySize=auto;html=0;verticalAlign=top;exitX=1;exitY=0.5;exitDx=0;exitDy=0;strokeWidth=4;dashed=1;" parent="VRGdZAyFobiUbNPC_dE9-2" source="VRGdZAyFobiUbNPC_dE9-5" edge="1">
          <mxGeometry relative="1" as="geometry">
            <mxPoint x="1060" y="505" as="targetPoint" />
            <mxPoint x="290" y="610" as="sourcePoint" />
          </mxGeometry>
        </mxCell>
        <mxCell id="VRGdZAyFobiUbNPC_dE9-10" value="" style="endArrow=classic;html=1;entryX=0.739;entryY=1.013;entryDx=0;entryDy=0;strokeWidth=4;entryPerimeter=0;dashed=1;" parent="VRGdZAyFobiUbNPC_dE9-2" target="VRGdZAyFobiUbNPC_dE9-4" edge="1">
          <mxGeometry width="50" height="50" relative="1" as="geometry">
            <mxPoint x="319" y="386" as="sourcePoint" />
            <mxPoint x="310" y="289.9999999999999" as="targetPoint" />
            <Array as="points" />
          </mxGeometry>
        </mxCell>
        <UserObject label="&lt;font style=&quot;font-size: 24px&quot;&gt;Local Planner&lt;/font&gt;" id="VRGdZAyFobiUbNPC_dE9-11">
          <mxCell style="whiteSpace=wrap;html=1;fillColor=#f5f5f5;strokeColor=#666666;fontColor=#333333;" parent="VRGdZAyFobiUbNPC_dE9-2" vertex="1">
            <mxGeometry x="90" y="740" width="310" height="230" as="geometry" />
          </mxCell>
        </UserObject>
        <mxCell id="VRGdZAyFobiUbNPC_dE9-12" value="" style="endArrow=classic;entryX=-0.003;entryY=0.5;entryDx=0;entryDy=0;verticalAlign=top;horizontal=1;strokeWidth=4;entryPerimeter=0;dashed=1;" parent="VRGdZAyFobiUbNPC_dE9-2" target="VRGdZAyFobiUbNPC_dE9-11" edge="1">
          <mxGeometry width="50" height="50" relative="1" as="geometry">
            <mxPoint y="855" as="sourcePoint" />
            <mxPoint x="100" y="575" as="targetPoint" />
          </mxGeometry>
        </mxCell>
        <mxCell id="VRGdZAyFobiUbNPC_dE9-13" style="edgeStyle=orthogonalEdgeStyle;rounded=0;orthogonalLoop=1;jettySize=auto;html=0;verticalAlign=top;exitX=1;exitY=0.5;exitDx=0;exitDy=0;strokeWidth=4;exitPerimeter=0;dashed=1;" parent="VRGdZAyFobiUbNPC_dE9-2" source="VRGdZAyFobiUbNPC_dE9-11" edge="1">
          <mxGeometry relative="1" as="geometry">
            <mxPoint x="1060" y="855" as="targetPoint" />
            <mxPoint x="410" y="575" as="sourcePoint" />
          </mxGeometry>
        </mxCell>
        <mxCell id="VRGdZAyFobiUbNPC_dE9-14" value="" style="endArrow=classic;html=1;exitX=0.213;exitY=1;exitDx=0;exitDy=0;strokeWidth=4;exitPerimeter=0;entryX=0.213;entryY=0;entryDx=0;entryDy=0;entryPerimeter=0;" parent="VRGdZAyFobiUbNPC_dE9-2" source="VRGdZAyFobiUbNPC_dE9-5" target="VRGdZAyFobiUbNPC_dE9-11" edge="1">
          <mxGeometry width="50" height="50" relative="1" as="geometry">
            <mxPoint x="171.92000000000007" y="302.06999999999994" as="sourcePoint" />
            <mxPoint x="172.8499999999999" y="400.9200000000001" as="targetPoint" />
            <Array as="points" />
          </mxGeometry>
        </mxCell>
        <mxCell id="VRGdZAyFobiUbNPC_dE9-15" value="" style="endArrow=classic;html=1;strokeWidth=4;dashed=1;exitX=0.739;exitY=-0.009;exitDx=0;exitDy=0;exitPerimeter=0;" parent="VRGdZAyFobiUbNPC_dE9-2" source="VRGdZAyFobiUbNPC_dE9-11" target="VRGdZAyFobiUbNPC_dE9-5" edge="1">
          <mxGeometry width="50" height="50" relative="1" as="geometry">
            <mxPoint x="329" y="396" as="sourcePoint" />
            <mxPoint x="329.09000000000015" y="302.99" as="targetPoint" />
            <Array as="points">
              <mxPoint x="319" y="620" />
            </Array>
          </mxGeometry>
        </mxCell>
        <mxCell id="KSVMmdrLgNj7wT940zoH-0" value="" style="shape=image;html=1;verticalAlign=top;verticalLabelPosition=bottom;labelBackgroundColor=#ffffff;imageAspect=0;aspect=fixed;image=https://cdn2.iconfinder.com/data/icons/circle-icons-1/64/caution-128.png;fontColor=#FF0000;strokeWidth=15;" parent="VRGdZAyFobiUbNPC_dE9-2" vertex="1">
          <mxGeometry x="320" y="540" width="68" height="68" as="geometry" />
        </mxCell>
        <mxCell id="KSVMmdrLgNj7wT940zoH-1" value="" style="shape=image;html=1;verticalAlign=top;verticalLabelPosition=bottom;labelBackgroundColor=#ffffff;imageAspect=0;aspect=fixed;image=https://cdn2.iconfinder.com/data/icons/circle-icons-1/64/caution-128.png;fontColor=#FF0000;strokeWidth=15;" parent="VRGdZAyFobiUbNPC_dE9-2" vertex="1">
          <mxGeometry x="320" y="210" width="68" height="68" as="geometry" />
        </mxCell>
        <mxCell id="KSVMmdrLgNj7wT940zoH-2" value="" style="shape=image;html=1;verticalAlign=top;verticalLabelPosition=bottom;labelBackgroundColor=#ffffff;imageAspect=0;aspect=fixed;image=https://cdn2.iconfinder.com/data/icons/circle-icons-1/64/caution-128.png;fontColor=#FF0000;strokeWidth=15;" parent="VRGdZAyFobiUbNPC_dE9-2" vertex="1">
          <mxGeometry x="320" y="890" width="68" height="68" as="geometry" />
        </mxCell>
        <UserObject label="&lt;font style=&quot;font-size: 24px&quot;&gt;Base Controller&lt;/font&gt;" id="HFpx4FhkuRhQlzOLaKi_-0">
          <mxCell style="whiteSpace=wrap;html=1;fillColor=#f5f5f5;strokeColor=#666666;fontColor=#333333;" vertex="1" parent="VRGdZAyFobiUbNPC_dE9-2">
            <mxGeometry x="90" y="1050" width="310" height="230" as="geometry" />
          </mxCell>
        </UserObject>
        <mxCell id="HFpx4FhkuRhQlzOLaKi_-1" value="" style="endArrow=classic;html=1;strokeWidth=4;entryX=0.245;entryY=0;entryDx=0;entryDy=0;entryPerimeter=0;" edge="1" parent="VRGdZAyFobiUbNPC_dE9-2" target="HFpx4FhkuRhQlzOLaKi_-0">
          <mxGeometry width="50" height="50" relative="1" as="geometry">
            <mxPoint x="166" y="970" as="sourcePoint" />
            <mxPoint x="166.0300000000002" y="750" as="targetPoint" />
            <Array as="points" />
          </mxGeometry>
        </mxCell>
        <mxCell id="HFpx4FhkuRhQlzOLaKi_-2" value="" style="shape=image;html=1;verticalAlign=top;verticalLabelPosition=bottom;labelBackgroundColor=#ffffff;imageAspect=0;aspect=fixed;image=https://cdn2.iconfinder.com/data/icons/circle-icons-1/64/caution-128.png;fontColor=#FF0000;strokeWidth=15;" vertex="1" parent="VRGdZAyFobiUbNPC_dE9-2">
          <mxGeometry x="320" y="1212" width="68" height="68" as="geometry" />
        </mxCell>
        <mxCell id="HFpx4FhkuRhQlzOLaKi_-3" style="edgeStyle=orthogonalEdgeStyle;rounded=0;orthogonalLoop=1;jettySize=auto;html=0;verticalAlign=top;strokeWidth=4;" edge="1" parent="VRGdZAyFobiUbNPC_dE9-2" source="HFpx4FhkuRhQlzOLaKi_-0">
          <mxGeometry relative="1" as="geometry">
            <mxPoint x="1060" y="1165" as="targetPoint" />
            <mxPoint x="460" y="958" as="sourcePoint" />
          </mxGeometry>
        </mxCell>
      </root>
    </mxGraphModel>
  </diagram>
  <diagram name="#2 Manipulation" id="eIDvcr-Mc0Faxmhkl4jw">
    <mxGraphModel dx="1350" dy="793" grid="1" gridSize="10" guides="1" tooltips="1" connect="1" arrows="1" fold="1" page="1" pageScale="1" pageWidth="850" pageHeight="1100" math="0" shadow="0">
      <root>
        <mxCell id="ycrooViRofl_8Tslt8GM-0" />
        <mxCell id="ycrooViRofl_8Tslt8GM-1" parent="ycrooViRofl_8Tslt8GM-0" />
        <UserObject label="Manipulation" link="data:page/id,prtHgNgQTEPvFCAcTncT" id="ycrooViRofl_8Tslt8GM-2">
          <mxCell style="swimlane;fillColor=#d5e8d4;strokeColor=#82b366;fontSize=24;strokeWidth=5;startSize=23;" parent="ycrooViRofl_8Tslt8GM-1" vertex="1">
            <mxGeometry x="690" y="90" width="1060" height="690" as="geometry">
              <mxRectangle x="220" y="500" width="180" height="23" as="alternateBounds" />
            </mxGeometry>
          </mxCell>
        </UserObject>
        <UserObject label="&lt;font style=&quot;font-size: 24px&quot;&gt;Endeffector Localization&lt;/font&gt;" id="ycrooViRofl_8Tslt8GM-3">
          <mxCell style="whiteSpace=wrap;html=1;fillColor=#f5f5f5;strokeColor=#666666;fontColor=#333333;" parent="ycrooViRofl_8Tslt8GM-2" vertex="1">
            <mxGeometry x="370" y="60" width="310" height="230" as="geometry" />
          </mxCell>
        </UserObject>
        <mxCell id="ycrooViRofl_8Tslt8GM-4" value="" style="endArrow=classic;html=1;entryX=0;entryY=0.5;entryDx=0;entryDy=0;strokeWidth=4;dashed=1;" parent="ycrooViRofl_8Tslt8GM-2" target="ycrooViRofl_8Tslt8GM-3" edge="1">
          <mxGeometry width="50" height="50" relative="1" as="geometry">
            <mxPoint y="175" as="sourcePoint" />
            <mxPoint x="50" y="75" as="targetPoint" />
          </mxGeometry>
        </mxCell>
        <mxCell id="ycrooViRofl_8Tslt8GM-5" value="" style="endArrow=classic;html=1;entryX=1;entryY=0.25;entryDx=0;entryDy=0;strokeWidth=4;exitX=1;exitY=0.5;exitDx=0;exitDy=0;dashed=1;" parent="ycrooViRofl_8Tslt8GM-2" source="ycrooViRofl_8Tslt8GM-3" target="ycrooViRofl_8Tslt8GM-2" edge="1">
          <mxGeometry width="50" height="50" relative="1" as="geometry">
            <mxPoint x="10" y="185" as="sourcePoint" />
            <mxPoint x="70" y="185" as="targetPoint" />
          </mxGeometry>
        </mxCell>
        <UserObject label="&lt;font style=&quot;font-size: 24px&quot;&gt;Endeffector Planning and Control&lt;br&gt;&lt;/font&gt;" id="ycrooViRofl_8Tslt8GM-6">
          <mxCell style="whiteSpace=wrap;html=1;fillColor=#f5f5f5;strokeColor=#666666;fontColor=#333333;" parent="ycrooViRofl_8Tslt8GM-2" vertex="1">
            <mxGeometry x="375" y="390" width="310" height="230" as="geometry" />
          </mxCell>
        </UserObject>
        <mxCell id="ycrooViRofl_8Tslt8GM-9" value="" style="endArrow=classic;html=1;strokeWidth=4;dashed=1;" parent="ycrooViRofl_8Tslt8GM-2" source="ycrooViRofl_8Tslt8GM-3" target="ycrooViRofl_8Tslt8GM-6" edge="1">
          <mxGeometry width="50" height="50" relative="1" as="geometry">
            <mxPoint x="10" y="185" as="sourcePoint" />
            <mxPoint x="380" y="185" as="targetPoint" />
          </mxGeometry>
        </mxCell>
        <mxCell id="ycrooViRofl_8Tslt8GM-7" value="" style="endArrow=classic;html=1;entryX=0;entryY=0.5;entryDx=0;entryDy=0;strokeWidth=4;dashed=1;" parent="ycrooViRofl_8Tslt8GM-1" edge="1">
          <mxGeometry width="50" height="50" relative="1" as="geometry">
            <mxPoint x="690" y="600" as="sourcePoint" />
            <mxPoint x="1070" y="600" as="targetPoint" />
          </mxGeometry>
        </mxCell>
        <mxCell id="ycrooViRofl_8Tslt8GM-8" value="" style="endArrow=classic;html=1;strokeWidth=4;exitX=1;exitY=0.5;exitDx=0;exitDy=0;dashed=1;" parent="ycrooViRofl_8Tslt8GM-1" source="ycrooViRofl_8Tslt8GM-6" edge="1">
          <mxGeometry width="50" height="50" relative="1" as="geometry">
            <mxPoint x="1380" y="600" as="sourcePoint" />
            <mxPoint x="1750" y="595" as="targetPoint" />
          </mxGeometry>
        </mxCell>
      </root>
    </mxGraphModel>
  </diagram>
  <diagram name="#2 External Communication" id="C093qX0OF2oCDqaruYOA">
    <mxGraphModel dx="2034" dy="1179" grid="1" gridSize="10" guides="1" tooltips="1" connect="1" arrows="1" fold="1" page="1" pageScale="1" pageWidth="850" pageHeight="1100" math="0" shadow="0">
      <root>
        <mxCell id="LenoP5UQQomnBTaJCB2y-0" />
        <mxCell id="LenoP5UQQomnBTaJCB2y-1" parent="LenoP5UQQomnBTaJCB2y-0" />
        <UserObject label="External Communication" link="data:page/id,prtHgNgQTEPvFCAcTncT" id="LenoP5UQQomnBTaJCB2y-2">
          <mxCell style="swimlane;fillColor=#e1d5e7;strokeColor=#9673a6;fontSize=24;strokeWidth=5;startSize=23;" parent="LenoP5UQQomnBTaJCB2y-1" vertex="1">
            <mxGeometry x="690" y="90" width="1060" height="690" as="geometry">
              <mxRectangle x="220" y="500" width="180" height="23" as="alternateBounds" />
            </mxGeometry>
          </mxCell>
        </UserObject>
        <UserObject label="&lt;font style=&quot;font-size: 24px&quot;&gt;Human-Machine-Interface/User Interface&lt;/font&gt;" id="LenoP5UQQomnBTaJCB2y-3">
          <mxCell style="whiteSpace=wrap;html=1;fillColor=#f5f5f5;strokeColor=#666666;fontColor=#333333;" parent="LenoP5UQQomnBTaJCB2y-2" vertex="1">
            <mxGeometry x="370" y="60" width="310" height="230" as="geometry" />
          </mxCell>
        </UserObject>
        <mxCell id="LenoP5UQQomnBTaJCB2y-4" value="" style="endArrow=classic;html=1;entryX=0;entryY=0.5;entryDx=0;entryDy=0;strokeWidth=4;dashed=1;" parent="LenoP5UQQomnBTaJCB2y-2" target="LenoP5UQQomnBTaJCB2y-3" edge="1">
          <mxGeometry width="50" height="50" relative="1" as="geometry">
            <mxPoint y="175" as="sourcePoint" />
            <mxPoint x="50" y="75" as="targetPoint" />
          </mxGeometry>
        </mxCell>
        <mxCell id="LenoP5UQQomnBTaJCB2y-5" value="" style="endArrow=classic;html=1;entryX=1;entryY=0.25;entryDx=0;entryDy=0;strokeWidth=4;exitX=1;exitY=0.5;exitDx=0;exitDy=0;dashed=1;" parent="LenoP5UQQomnBTaJCB2y-2" source="LenoP5UQQomnBTaJCB2y-3" target="LenoP5UQQomnBTaJCB2y-2" edge="1">
          <mxGeometry width="50" height="50" relative="1" as="geometry">
            <mxPoint x="10" y="185" as="sourcePoint" />
            <mxPoint x="70" y="185" as="targetPoint" />
          </mxGeometry>
        </mxCell>
        <UserObject label="&lt;font style=&quot;font-size: 24px&quot;&gt;Cloud Services&lt;br&gt;&lt;/font&gt;" id="LenoP5UQQomnBTaJCB2y-6">
          <mxCell style="whiteSpace=wrap;html=1;fillColor=#f5f5f5;strokeColor=#666666;fontColor=#333333;" parent="LenoP5UQQomnBTaJCB2y-2" vertex="1">
            <mxGeometry x="375" y="390" width="310" height="230" as="geometry" />
          </mxCell>
        </UserObject>
        <mxCell id="LenoP5UQQomnBTaJCB2y-7" value="" style="endArrow=classic;html=1;entryX=0;entryY=0.5;entryDx=0;entryDy=0;strokeWidth=4;dashed=1;" parent="LenoP5UQQomnBTaJCB2y-1" edge="1">
          <mxGeometry width="50" height="50" relative="1" as="geometry">
            <mxPoint x="690" y="600" as="sourcePoint" />
            <mxPoint x="1070" y="600" as="targetPoint" />
          </mxGeometry>
        </mxCell>
        <mxCell id="LenoP5UQQomnBTaJCB2y-8" value="" style="endArrow=classic;html=1;strokeWidth=4;exitX=1;exitY=0.5;exitDx=0;exitDy=0;dashed=1;" parent="LenoP5UQQomnBTaJCB2y-1" source="LenoP5UQQomnBTaJCB2y-6" edge="1">
          <mxGeometry width="50" height="50" relative="1" as="geometry">
            <mxPoint x="1380" y="600" as="sourcePoint" />
            <mxPoint x="1750" y="595" as="targetPoint" />
          </mxGeometry>
        </mxCell>
      </root>
    </mxGraphModel>
  </diagram>
  <diagram name="#2 State Machine" id="u-vYEVRFuFM_trzkMUZv">
    <mxGraphModel dx="2906" dy="1684" grid="1" gridSize="10" guides="1" tooltips="1" connect="1" arrows="1" fold="1" page="1" pageScale="1" pageWidth="850" pageHeight="1100" math="0" shadow="0">
      <root>
        <mxCell id="Fh1K5jzAuqw4cRkZRqAW-0" />
        <mxCell id="Fh1K5jzAuqw4cRkZRqAW-1" parent="Fh1K5jzAuqw4cRkZRqAW-0" />
        <UserObject label="State Machine" link="data:page/id,prtHgNgQTEPvFCAcTncT" id="Fh1K5jzAuqw4cRkZRqAW-2">
          <mxCell style="swimlane;fillColor=#e1d5e7;strokeColor=#9673a6;fontSize=24;strokeWidth=5;startSize=23;" parent="Fh1K5jzAuqw4cRkZRqAW-1" vertex="1">
            <mxGeometry x="690" y="90" width="1060" height="690" as="geometry">
              <mxRectangle x="220" y="500" width="180" height="23" as="alternateBounds" />
            </mxGeometry>
          </mxCell>
        </UserObject>
        <UserObject label="&lt;font style=&quot;font-size: 24px&quot;&gt;System Level State Machine&lt;/font&gt;" id="Fh1K5jzAuqw4cRkZRqAW-3">
          <mxCell style="whiteSpace=wrap;html=1;fillColor=#f5f5f5;strokeColor=#666666;fontColor=#333333;" parent="Fh1K5jzAuqw4cRkZRqAW-2" vertex="1">
            <mxGeometry x="370" y="60" width="310" height="230" as="geometry" />
          </mxCell>
        </UserObject>
        <mxCell id="Fh1K5jzAuqw4cRkZRqAW-4" value="" style="endArrow=classic;html=1;entryX=0;entryY=0.5;entryDx=0;entryDy=0;strokeWidth=4;dashed=1;" parent="Fh1K5jzAuqw4cRkZRqAW-2" target="Fh1K5jzAuqw4cRkZRqAW-3" edge="1">
          <mxGeometry width="50" height="50" relative="1" as="geometry">
            <mxPoint y="175" as="sourcePoint" />
            <mxPoint x="50" y="75" as="targetPoint" />
          </mxGeometry>
        </mxCell>
        <mxCell id="Fh1K5jzAuqw4cRkZRqAW-5" value="" style="endArrow=classic;html=1;entryX=1;entryY=0.25;entryDx=0;entryDy=0;strokeWidth=4;exitX=1;exitY=0.5;exitDx=0;exitDy=0;dashed=1;" parent="Fh1K5jzAuqw4cRkZRqAW-2" source="Fh1K5jzAuqw4cRkZRqAW-3" target="Fh1K5jzAuqw4cRkZRqAW-2" edge="1">
          <mxGeometry width="50" height="50" relative="1" as="geometry">
            <mxPoint x="10" y="185" as="sourcePoint" />
            <mxPoint x="70" y="185" as="targetPoint" />
          </mxGeometry>
        </mxCell>
      </root>
    </mxGraphModel>
  </diagram>
  <diagram name="#2 Energy Management" id="uP4-Yw_Tm0QMoZMme-e3">
    <mxGraphModel dx="1350" dy="793" grid="1" gridSize="10" guides="1" tooltips="1" connect="1" arrows="1" fold="1" page="1" pageScale="1" pageWidth="850" pageHeight="1100" math="0" shadow="0">
      <root>
        <mxCell id="RZkwlU1FGdtB16w2TL55-0" />
        <mxCell id="RZkwlU1FGdtB16w2TL55-1" parent="RZkwlU1FGdtB16w2TL55-0" />
        <UserObject label="Energy Management" link="data:page/id,prtHgNgQTEPvFCAcTncT" id="RZkwlU1FGdtB16w2TL55-2">
          <mxCell style="swimlane;fillColor=#e1d5e7;strokeColor=#9673a6;fontSize=24;strokeWidth=5;startSize=23;" parent="RZkwlU1FGdtB16w2TL55-1" vertex="1">
            <mxGeometry x="690" y="90" width="1060" height="690" as="geometry">
              <mxRectangle x="220" y="500" width="180" height="23" as="alternateBounds" />
            </mxGeometry>
          </mxCell>
        </UserObject>
        <UserObject label="&lt;font style=&quot;font-size: 24px&quot;&gt;Battery Management System&lt;/font&gt;" id="RZkwlU1FGdtB16w2TL55-3">
          <mxCell style="whiteSpace=wrap;html=1;fillColor=#f5f5f5;strokeColor=#666666;fontColor=#333333;" parent="RZkwlU1FGdtB16w2TL55-2" vertex="1">
            <mxGeometry x="370" y="60" width="310" height="230" as="geometry" />
          </mxCell>
        </UserObject>
        <mxCell id="RZkwlU1FGdtB16w2TL55-4" value="" style="endArrow=classic;html=1;entryX=0;entryY=0.5;entryDx=0;entryDy=0;strokeWidth=4;dashed=1;" parent="RZkwlU1FGdtB16w2TL55-2" target="RZkwlU1FGdtB16w2TL55-3" edge="1">
          <mxGeometry width="50" height="50" relative="1" as="geometry">
            <mxPoint y="175" as="sourcePoint" />
            <mxPoint x="50" y="75" as="targetPoint" />
          </mxGeometry>
        </mxCell>
        <mxCell id="RZkwlU1FGdtB16w2TL55-5" value="" style="endArrow=classic;html=1;entryX=1;entryY=0.25;entryDx=0;entryDy=0;strokeWidth=4;exitX=1;exitY=0.5;exitDx=0;exitDy=0;dashed=1;" parent="RZkwlU1FGdtB16w2TL55-2" source="RZkwlU1FGdtB16w2TL55-3" target="RZkwlU1FGdtB16w2TL55-2" edge="1">
          <mxGeometry width="50" height="50" relative="1" as="geometry">
            <mxPoint x="10" y="185" as="sourcePoint" />
            <mxPoint x="70" y="185" as="targetPoint" />
          </mxGeometry>
        </mxCell>
      </root>
    </mxGraphModel>
  </diagram>
  <diagram id="IOYLnJJ4BgAqwaHzsp6H" name="#3 Feature detection">
    <mxGraphModel dx="500" dy="792" grid="1" gridSize="10" guides="1" tooltips="1" connect="1" arrows="1" fold="1" page="1" pageScale="1" pageWidth="850" pageHeight="1100" math="0" shadow="0">
      <root>
        <mxCell id="bc8v0HQKV4KShlzoeEVc-0" />
        <mxCell id="bc8v0HQKV4KShlzoeEVc-1" parent="bc8v0HQKV4KShlzoeEVc-0" />
        <UserObject label="Feature detection" link="data:page/id,-KKOEtGZJ8pCZJSewmnd" id="BPasP5GSA_S-SCvst9oH-0">
          <mxCell style="swimlane;fillColor=#ffe6cc;strokeColor=#d79b00;fontSize=24;strokeWidth=5;" parent="bc8v0HQKV4KShlzoeEVc-1" vertex="1">
            <mxGeometry x="2030" y="130" width="1010" height="1180" as="geometry">
              <mxRectangle x="1750" y="200" width="180" height="23" as="alternateBounds" />
            </mxGeometry>
          </mxCell>
        </UserObject>
        <mxCell id="BPasP5GSA_S-SCvst9oH-2" value="&lt;font style=&quot;font-size: 24px&quot;&gt;Row / End of row feature detection&lt;/font&gt;" style="whiteSpace=wrap;html=1;fillColor=#dae8fc;strokeColor=#6c8ebf;" parent="BPasP5GSA_S-SCvst9oH-0" vertex="1">
          <mxGeometry x="220" y="70" width="220" height="155" as="geometry" />
        </mxCell>
        <mxCell id="BPasP5GSA_S-SCvst9oH-5" value="Sensors:3D Point Cloud" style="endArrow=classic;html=1;verticalAlign=top;entryX=0;entryY=0.75;entryDx=0;entryDy=0;" parent="BPasP5GSA_S-SCvst9oH-0" target="BPasP5GSA_S-SCvst9oH-2" edge="1">
          <mxGeometry width="50" height="50" relative="1" as="geometry">
            <mxPoint y="186" as="sourcePoint" />
            <mxPoint x="90" y="133" as="targetPoint" />
          </mxGeometry>
        </mxCell>
        <mxCell id="BPasP5GSA_S-SCvst9oH-10" value="Row Segment Feature List" style="endArrow=classic;html=1;verticalAlign=top;exitX=0.995;exitY=0.31;exitDx=0;exitDy=0;exitPerimeter=0;" parent="BPasP5GSA_S-SCvst9oH-0" source="BPasP5GSA_S-SCvst9oH-2" edge="1">
          <mxGeometry width="50" height="50" relative="1" as="geometry">
            <mxPoint y="556" as="sourcePoint" />
            <mxPoint x="1010" y="120" as="targetPoint" />
          </mxGeometry>
        </mxCell>
        <mxCell id="BPasP5GSA_S-SCvst9oH-11" value="&lt;div&gt;Localization:Pose&lt;/div&gt;" style="endArrow=classic;html=1;verticalAlign=top;entryX=0;entryY=0.25;entryDx=0;entryDy=0;" parent="BPasP5GSA_S-SCvst9oH-0" target="BPasP5GSA_S-SCvst9oH-2" edge="1">
          <mxGeometry width="50" height="50" relative="1" as="geometry">
            <mxPoint y="109" as="sourcePoint" />
            <mxPoint x="100" y="143" as="targetPoint" />
          </mxGeometry>
        </mxCell>
        <mxCell id="BPasP5GSA_S-SCvst9oH-14" value="End of Row Feature List" style="endArrow=classic;html=1;verticalAlign=top;exitX=1;exitY=0.75;exitDx=0;exitDy=0;" parent="BPasP5GSA_S-SCvst9oH-0" source="BPasP5GSA_S-SCvst9oH-2" edge="1">
          <mxGeometry width="50" height="50" relative="1" as="geometry">
            <mxPoint x="30" y="199.99999999999994" as="sourcePoint" />
            <mxPoint x="1010" y="190" as="targetPoint" />
          </mxGeometry>
        </mxCell>
        <mxCell id="GtJKwsiH4AqyrHeMA83c-0" value="&lt;div&gt;&lt;font style=&quot;font-size: 24px&quot;&gt;Weed/Crop&lt;/font&gt;&lt;/div&gt;&lt;div&gt;&lt;font style=&quot;font-size: 24px&quot;&gt; detection 2d&lt;/font&gt;&lt;/div&gt;" style="whiteSpace=wrap;html=1;fillColor=#dae8fc;strokeColor=#6c8ebf;" parent="BPasP5GSA_S-SCvst9oH-0" vertex="1">
          <mxGeometry x="220" y="280" width="220" height="155" as="geometry" />
        </mxCell>
        <mxCell id="GtJKwsiH4AqyrHeMA83c-1" value="Localization:Pose" style="endArrow=classic;html=1;verticalAlign=top;entryX=0;entryY=0.25;entryDx=0;entryDy=0;" parent="BPasP5GSA_S-SCvst9oH-0" target="GtJKwsiH4AqyrHeMA83c-0" edge="1">
          <mxGeometry width="50" height="50" relative="1" as="geometry">
            <mxPoint y="319" as="sourcePoint" />
            <mxPoint x="230" y="118.75" as="targetPoint" />
          </mxGeometry>
        </mxCell>
        <mxCell id="GtJKwsiH4AqyrHeMA83c-3" value="&lt;div&gt;Crop feature list (position, footprint, stem estimate)&lt;/div&gt;&lt;div&gt;weed feature list (position)&lt;br&gt; &lt;/div&gt;" style="endArrow=classic;html=1;verticalAlign=top;exitX=1;exitY=0.5;exitDx=0;exitDy=0;" parent="BPasP5GSA_S-SCvst9oH-0" source="GtJKwsiH4AqyrHeMA83c-0" edge="1">
          <mxGeometry x="0.1932" y="-11" width="50" height="50" relative="1" as="geometry">
            <mxPoint x="440" y="359" as="sourcePoint" />
            <mxPoint x="1010" y="360" as="targetPoint" />
            <mxPoint as="offset" />
          </mxGeometry>
        </mxCell>
        <mxCell id="2bEsUeJ_qH1CMkARO1TF-4" value="&lt;font style=&quot;font-size: 24px&quot;&gt;Semantic edge detection&lt;br&gt;&lt;/font&gt;" style="whiteSpace=wrap;html=1;fillColor=#f5f5f5;strokeColor=#666666;fontColor=#333333;" parent="BPasP5GSA_S-SCvst9oH-0" vertex="1">
          <mxGeometry x="220" y="690" width="220" height="155" as="geometry" />
        </mxCell>
        <mxCell id="qj0EfLt6Ij-aEYun8UBH-1" value="&lt;font style=&quot;font-size: 24px&quot;&gt;Obstacle detection and classification&lt;br&gt;&lt;/font&gt;" style="whiteSpace=wrap;html=1;fillColor=#f5f5f5;strokeColor=#666666;fontColor=#333333;" parent="BPasP5GSA_S-SCvst9oH-0" vertex="1">
          <mxGeometry x="220" y="900" width="220" height="155" as="geometry" />
        </mxCell>
        <mxCell id="qj0EfLt6Ij-aEYun8UBH-2" value="Localization:Pose" style="endArrow=classic;html=1;verticalAlign=top;entryX=0;entryY=0.703;entryDx=0;entryDy=0;entryPerimeter=0;dashed=1;" parent="BPasP5GSA_S-SCvst9oH-0" edge="1">
          <mxGeometry width="50" height="50" relative="1" as="geometry">
            <mxPoint y="940.04" as="sourcePoint" />
            <mxPoint x="220" y="940.0049999999999" as="targetPoint" />
          </mxGeometry>
        </mxCell>
        <mxCell id="qj0EfLt6Ij-aEYun8UBH-3" value="Sensors:Image" style="endArrow=classic;html=1;verticalAlign=top;entryX=0;entryY=0.703;entryDx=0;entryDy=0;entryPerimeter=0;dashed=1;" parent="BPasP5GSA_S-SCvst9oH-0" edge="1">
          <mxGeometry width="50" height="50" relative="1" as="geometry">
            <mxPoint y="1020.04" as="sourcePoint" />
            <mxPoint x="220" y="1020.0050000000001" as="targetPoint" />
          </mxGeometry>
        </mxCell>
        <mxCell id="qj0EfLt6Ij-aEYun8UBH-4" value="?List of Obstacles" style="endArrow=classic;html=1;verticalAlign=top;dashed=1;" parent="BPasP5GSA_S-SCvst9oH-0" edge="1">
          <mxGeometry x="0.0175" y="-10" width="50" height="50" relative="1" as="geometry">
            <mxPoint x="440" y="980.04" as="sourcePoint" />
            <mxPoint x="1010" y="980" as="targetPoint" />
            <mxPoint x="1" as="offset" />
          </mxGeometry>
        </mxCell>
        <mxCell id="GtJKwsiH4AqyrHeMA83c-2" value="Sensors:Image" style="endArrow=classic;html=1;verticalAlign=top;entryX=0;entryY=0.703;entryDx=0;entryDy=0;entryPerimeter=0;" parent="bc8v0HQKV4KShlzoeEVc-1" target="GtJKwsiH4AqyrHeMA83c-0" edge="1">
          <mxGeometry width="50" height="50" relative="1" as="geometry">
            <mxPoint x="2030" y="519" as="sourcePoint" />
            <mxPoint x="2260" y="326.25" as="targetPoint" />
          </mxGeometry>
        </mxCell>
        <mxCell id="hjQK-kU-azFaJijzaqRf-0" value="&lt;div&gt;Pose&lt;/div&gt;" style="endArrow=classic;html=1;verticalAlign=top;entryX=0;entryY=0.25;entryDx=0;entryDy=0;strokeWidth=6;" parent="bc8v0HQKV4KShlzoeEVc-1" edge="1">
          <mxGeometry width="50" height="50" relative="1" as="geometry">
            <mxPoint x="1810" y="180.25" as="sourcePoint" />
            <mxPoint x="2030" y="180" as="targetPoint" />
          </mxGeometry>
        </mxCell>
        <mxCell id="hjQK-kU-azFaJijzaqRf-1" value="&lt;div&gt;3D Pointcloud&lt;/div&gt;&lt;div&gt;Image&lt;/div&gt;" style="endArrow=classic;html=1;verticalAlign=top;entryX=0;entryY=0.25;entryDx=0;entryDy=0;strokeWidth=6;" parent="bc8v0HQKV4KShlzoeEVc-1" edge="1">
          <mxGeometry width="50" height="50" relative="1" as="geometry">
            <mxPoint x="1810" y="220.25" as="sourcePoint" />
            <mxPoint x="2030" y="220" as="targetPoint" />
          </mxGeometry>
        </mxCell>
        <mxCell id="2bEsUeJ_qH1CMkARO1TF-5" value="Localization:Pose" style="endArrow=classic;html=1;verticalAlign=top;entryX=0;entryY=0.703;entryDx=0;entryDy=0;entryPerimeter=0;dashed=1;fixDash=0;snapToPoint=0;" parent="bc8v0HQKV4KShlzoeEVc-1" edge="1">
          <mxGeometry width="50" height="50" relative="1" as="geometry">
            <mxPoint x="2030" y="860.04" as="sourcePoint" />
            <mxPoint x="2250" y="860.0049999999999" as="targetPoint" />
          </mxGeometry>
        </mxCell>
        <mxCell id="2bEsUeJ_qH1CMkARO1TF-6" value="Sensors:Image" style="endArrow=classic;html=1;verticalAlign=top;entryX=0;entryY=0.703;entryDx=0;entryDy=0;entryPerimeter=0;dashed=1;" parent="bc8v0HQKV4KShlzoeEVc-1" edge="1">
          <mxGeometry width="50" height="50" relative="1" as="geometry">
            <mxPoint x="2030" y="940.04" as="sourcePoint" />
            <mxPoint x="2250" y="940.0049999999999" as="targetPoint" />
          </mxGeometry>
        </mxCell>
        <mxCell id="2bEsUeJ_qH1CMkARO1TF-7" value="?List of Points" style="endArrow=classic;html=1;verticalAlign=top;dashed=1;" parent="bc8v0HQKV4KShlzoeEVc-1" edge="1">
          <mxGeometry width="50" height="50" relative="1" as="geometry">
            <mxPoint x="2470" y="900.04" as="sourcePoint" />
            <mxPoint x="3040" y="900" as="targetPoint" />
          </mxGeometry>
        </mxCell>
        <mxCell id="qj0EfLt6Ij-aEYun8UBH-0" value="&lt;div&gt;Row Segment Feature List&lt;/div&gt;&lt;div&gt;End of Row Feature List&lt;/div&gt;&lt;div&gt;&lt;div&gt;Crop feature list (position, footprint and stem estimate)&lt;/div&gt;weed feature list (position&lt;/div&gt;" style="endArrow=classic;html=1;verticalAlign=top;entryX=0;entryY=0.25;entryDx=0;entryDy=0;strokeWidth=6;" parent="bc8v0HQKV4KShlzoeEVc-1" edge="1">
          <mxGeometry width="50" height="50" relative="1" as="geometry">
            <mxPoint x="3040" y="190" as="sourcePoint" />
            <mxPoint x="3270" y="190" as="targetPoint" />
          </mxGeometry>
        </mxCell>
        <UserObject label="&lt;font style=&quot;font-size: 24px&quot;&gt;Localization&lt;/font&gt;" link="data:page/id,JPMW2gzQvGPrBKrfu0p5" id="qxIbrad3u4Z0MIxb3xw0-0">
          <mxCell style="text;html=1;align=center;verticalAlign=middle;resizable=0;points=[];autosize=1;strokeColor=none;" parent="bc8v0HQKV4KShlzoeEVc-1" vertex="1">
            <mxGeometry x="1660" y="170" width="140" height="20" as="geometry" />
          </mxCell>
        </UserObject>
        <mxCell id="qxIbrad3u4Z0MIxb3xw0-3" value="&lt;font style=&quot;font-size: 24px&quot;&gt;Sensors&lt;/font&gt;" style="text;html=1;align=center;verticalAlign=middle;resizable=0;points=[];autosize=1;strokeColor=none;" parent="bc8v0HQKV4KShlzoeEVc-1" vertex="1">
          <mxGeometry x="1680" y="210" width="100" height="20" as="geometry" />
        </mxCell>
        <mxCell id="qtf8ybKhO7FgR53NP359-1" value="" style="shape=image;html=1;verticalAlign=top;verticalLabelPosition=bottom;labelBackgroundColor=#ffffff;imageAspect=0;aspect=fixed;image=https://cdn0.iconfinder.com/data/icons/gradient-runded-glowing-icons/128/plus_2.png;fontColor=#FF0000;strokeWidth=15;" parent="bc8v0HQKV4KShlzoeEVc-1" vertex="1">
          <mxGeometry x="2420" y="925" width="50" height="50" as="geometry" />
        </mxCell>
        <mxCell id="qtf8ybKhO7FgR53NP359-2" value="" style="shape=image;html=1;verticalAlign=top;verticalLabelPosition=bottom;labelBackgroundColor=#ffffff;imageAspect=0;aspect=fixed;image=https://cdn0.iconfinder.com/data/icons/gradient-runded-glowing-icons/128/plus_2.png;fontColor=#FF0000;strokeWidth=15;" parent="bc8v0HQKV4KShlzoeEVc-1" vertex="1">
          <mxGeometry x="2420" y="1135" width="50" height="50" as="geometry" />
        </mxCell>
      </root>
    </mxGraphModel>
  </diagram>
  <diagram name="#3 Localization" id="JPMW2gzQvGPrBKrfu0p5">
    <mxGraphModel dx="1079" dy="1133" grid="1" gridSize="10" guides="1" tooltips="1" connect="1" arrows="1" fold="1" page="1" pageScale="1" pageWidth="850" pageHeight="1100" math="0" shadow="0">
      <root>
        <mxCell id="42opMkd3-ntrzkHxIpRt-0" />
        <mxCell id="42opMkd3-ntrzkHxIpRt-1" parent="42opMkd3-ntrzkHxIpRt-0" />
        <UserObject label="Localization" link="data:page/id,ldTAqI2T-_zdcecsA4YL" id="42opMkd3-ntrzkHxIpRt-2">
          <mxCell style="swimlane;fillColor=#ffe6cc;strokeColor=#d79b00;fontSize=24;strokeWidth=5;" parent="42opMkd3-ntrzkHxIpRt-1" vertex="1">
            <mxGeometry x="1990" y="90" width="1090" height="640" as="geometry">
              <mxRectangle x="1750" y="200" width="180" height="23" as="alternateBounds" />
            </mxGeometry>
          </mxCell>
        </UserObject>
        <mxCell id="42opMkd3-ntrzkHxIpRt-3" value="&lt;font style=&quot;font-size: 24px&quot;&gt;Extended Kalman Filter&lt;br&gt;&lt;/font&gt;" style="whiteSpace=wrap;html=1;fillColor=#dae8fc;strokeColor=#6c8ebf;" parent="42opMkd3-ntrzkHxIpRt-2" vertex="1">
          <mxGeometry x="530" y="70" width="220" height="155" as="geometry" />
        </mxCell>
        <mxCell id="42opMkd3-ntrzkHxIpRt-4" value="Sensors:Wheel or Sensors:Visual Odometry" style="endArrow=classic;html=1;verticalAlign=top;" parent="42opMkd3-ntrzkHxIpRt-2" edge="1">
          <mxGeometry width="50" height="50" relative="1" as="geometry">
            <mxPoint y="190" as="sourcePoint" />
            <mxPoint x="530" y="190" as="targetPoint" />
          </mxGeometry>
        </mxCell>
        <mxCell id="42opMkd3-ntrzkHxIpRt-5" value="Filtered Odometry" style="endArrow=classic;html=1;verticalAlign=top;" parent="42opMkd3-ntrzkHxIpRt-2" edge="1">
          <mxGeometry width="50" height="50" relative="1" as="geometry">
            <mxPoint x="750" y="145" as="sourcePoint" />
            <mxPoint x="1090" y="145" as="targetPoint" />
          </mxGeometry>
        </mxCell>
        <mxCell id="42opMkd3-ntrzkHxIpRt-6" value="Sensors:IMU" style="endArrow=classic;html=1;verticalAlign=top;entryX=0;entryY=0.25;entryDx=0;entryDy=0;" parent="42opMkd3-ntrzkHxIpRt-2" target="42opMkd3-ntrzkHxIpRt-3" edge="1">
          <mxGeometry width="50" height="50" relative="1" as="geometry">
            <mxPoint y="109" as="sourcePoint" />
            <mxPoint x="100" y="143" as="targetPoint" />
          </mxGeometry>
        </mxCell>
        <mxCell id="42opMkd3-ntrzkHxIpRt-8" value="&lt;div&gt;&lt;font style=&quot;font-size: 24px&quot;&gt;Extended Kalman Filter&lt;/font&gt;&lt;/div&gt;" style="whiteSpace=wrap;html=1;fillColor=#dae8fc;strokeColor=#6c8ebf;" parent="42opMkd3-ntrzkHxIpRt-2" vertex="1">
          <mxGeometry x="430" y="351" width="220" height="155" as="geometry" />
        </mxCell>
        <mxCell id="42opMkd3-ntrzkHxIpRt-10" value="Global Pose Estimate" style="endArrow=classic;html=1;verticalAlign=top;exitX=1;exitY=0.5;exitDx=0;exitDy=0;" parent="42opMkd3-ntrzkHxIpRt-2" source="42opMkd3-ntrzkHxIpRt-8" edge="1">
          <mxGeometry width="50" height="50" relative="1" as="geometry">
            <mxPoint x="752" y="428" as="sourcePoint" />
            <mxPoint x="1090" y="428" as="targetPoint" />
          </mxGeometry>
        </mxCell>
        <mxCell id="42opMkd3-ntrzkHxIpRt-36" value="&lt;div&gt;&lt;font style=&quot;font-size: 24px&quot;&gt;Feature Referencing&lt;br&gt;&lt;/font&gt;&lt;/div&gt;" style="whiteSpace=wrap;html=1;fillColor=#f5f5f5;strokeColor=#666666;fontColor=#333333;" parent="42opMkd3-ntrzkHxIpRt-2" vertex="1">
          <mxGeometry x="760" y="470" width="200" height="110" as="geometry" />
        </mxCell>
        <mxCell id="42opMkd3-ntrzkHxIpRt-38" value="Feature Detection:Feature List" style="endArrow=classic;html=1;verticalAlign=top;dashed=1;entryX=0.01;entryY=0.418;entryDx=0;entryDy=0;entryPerimeter=0;" parent="42opMkd3-ntrzkHxIpRt-2" target="42opMkd3-ntrzkHxIpRt-36" edge="1">
          <mxGeometry width="50" height="50" relative="1" as="geometry">
            <mxPoint x="2" y="516" as="sourcePoint" />
            <mxPoint x="201.98" y="488" as="targetPoint" />
          </mxGeometry>
        </mxCell>
        <mxCell id="42opMkd3-ntrzkHxIpRt-31" value="Sensors:Wheel or Sensors:Visual Odometry" style="endArrow=classic;html=1;verticalAlign=top;entryX=-0.009;entryY=0.329;entryDx=0;entryDy=0;entryPerimeter=0;" parent="42opMkd3-ntrzkHxIpRt-2" target="42opMkd3-ntrzkHxIpRt-8" edge="1">
          <mxGeometry x="2190" y="507" width="50" height="50" as="geometry">
            <mxPoint x="1.9800000000000182" y="400" as="sourcePoint" />
            <mxPoint x="530" y="399.98" as="targetPoint" />
          </mxGeometry>
        </mxCell>
        <mxCell id="42opMkd3-ntrzkHxIpRt-32" value="Sensors:IMU" style="endArrow=classic;html=1;verticalAlign=top;entryX=-0.009;entryY=0.135;entryDx=0;entryDy=0;entryPerimeter=0;" parent="42opMkd3-ntrzkHxIpRt-2" target="42opMkd3-ntrzkHxIpRt-8" edge="1">
          <mxGeometry x="2190" y="501" width="50" height="50" as="geometry">
            <mxPoint y="371.25" as="sourcePoint" />
            <mxPoint x="531.98" y="371" as="targetPoint" />
          </mxGeometry>
        </mxCell>
        <mxCell id="42opMkd3-ntrzkHxIpRt-35" value="Sensors:GPS or Sensors:RTK" style="endArrow=classic;html=1;verticalAlign=top;entryX=0;entryY=0.5;entryDx=0;entryDy=0;" parent="42opMkd3-ntrzkHxIpRt-2" target="42opMkd3-ntrzkHxIpRt-8" edge="1">
          <mxGeometry x="2190" y="508" width="50" height="50" as="geometry">
            <mxPoint x="3.9600000000000364" y="429.02" as="sourcePoint" />
            <mxPoint x="531.98" y="429" as="targetPoint" />
            <mxPoint as="offset" />
          </mxGeometry>
        </mxCell>
        <mxCell id="nW_OiwFnYuauo7ZKkZl1-0" value="" style="shape=image;html=1;verticalAlign=top;verticalLabelPosition=bottom;labelBackgroundColor=#ffffff;imageAspect=0;aspect=fixed;image=https://cdn0.iconfinder.com/data/icons/gradient-runded-glowing-icons/128/plus_2.png;fontColor=#FF0000;strokeWidth=15;" parent="42opMkd3-ntrzkHxIpRt-2" vertex="1">
          <mxGeometry x="930" y="550" width="30" height="30" as="geometry" />
        </mxCell>
        <mxCell id="QMwSqwbx9LA0w1mZijMi-2" value="Global Pose Estimate" style="endArrow=classic;html=1;verticalAlign=top;exitX=1.014;exitY=0.652;exitDx=0;exitDy=0;edgeStyle=orthogonalEdgeStyle;exitPerimeter=0;entryX=-0.005;entryY=0.2;entryDx=0;entryDy=0;entryPerimeter=0;" parent="42opMkd3-ntrzkHxIpRt-2" source="42opMkd3-ntrzkHxIpRt-8" target="42opMkd3-ntrzkHxIpRt-36" edge="1">
          <mxGeometry x="0.2594" width="50" height="50" relative="1" as="geometry">
            <mxPoint x="660" y="438.5" as="sourcePoint" />
            <mxPoint x="1021.98" y="438" as="targetPoint" />
            <mxPoint as="offset" />
          </mxGeometry>
        </mxCell>
        <mxCell id="42opMkd3-ntrzkHxIpRt-39" value="?Mapping:Offline Map" style="endArrow=classic;html=1;verticalAlign=top;bendable=1;dashed=1;entryX=0;entryY=0.75;entryDx=0;entryDy=0;" parent="42opMkd3-ntrzkHxIpRt-1" target="42opMkd3-ntrzkHxIpRt-36" edge="1">
          <mxGeometry x="-0.0199" width="50" height="50" relative="1" as="geometry">
            <mxPoint x="1992" y="643" as="sourcePoint" />
            <mxPoint x="2191.98" y="630" as="targetPoint" />
            <mxPoint as="offset" />
          </mxGeometry>
        </mxCell>
        <mxCell id="ekxwbWxypoJzVFj9g2kR-0" value="&lt;div&gt;Filtered Odometry&lt;/div&gt;&lt;div&gt;Global Pose Estimate&lt;br&gt;&lt;/div&gt;&lt;div&gt;(Corrected Robot Pose)&lt;br&gt;&lt;/div&gt;" style="endArrow=classic;html=1;verticalAlign=top;entryX=0;entryY=0.25;entryDx=0;entryDy=0;strokeWidth=6;" parent="42opMkd3-ntrzkHxIpRt-1" edge="1">
          <mxGeometry width="50" height="50" relative="1" as="geometry">
            <mxPoint x="3080" y="140" as="sourcePoint" />
            <mxPoint x="3310" y="140" as="targetPoint" />
          </mxGeometry>
        </mxCell>
        <mxCell id="ekxwbWxypoJzVFj9g2kR-1" value="&lt;div&gt;IMU&lt;br&gt;&lt;/div&gt;&lt;div&gt;Wheel Odometry&lt;/div&gt;&lt;div&gt;Visual Odometry&lt;/div&gt;&lt;div&gt;GPS&lt;/div&gt;&lt;div&gt;RTK GPS&lt;br&gt;&lt;/div&gt;" style="endArrow=classic;html=1;verticalAlign=top;entryX=0;entryY=0.25;entryDx=0;entryDy=0;strokeWidth=6;" parent="42opMkd3-ntrzkHxIpRt-1" edge="1">
          <mxGeometry width="50" height="50" relative="1" as="geometry">
            <mxPoint x="1760" y="130" as="sourcePoint" />
            <mxPoint x="1990" y="130" as="targetPoint" />
          </mxGeometry>
        </mxCell>
        <mxCell id="7bAObufLiyEwm3ITj-JQ-1" value="&lt;font style=&quot;font-size: 24px&quot;&gt;Sensors&lt;/font&gt;" style="text;html=1;align=center;verticalAlign=middle;resizable=0;points=[];autosize=1;strokeColor=none;" parent="42opMkd3-ntrzkHxIpRt-1" vertex="1">
          <mxGeometry x="1650" y="120" width="100" height="20" as="geometry" />
        </mxCell>
        <mxCell id="42opMkd3-ntrzkHxIpRt-37" value="Corrected Robot Pose" style="endArrow=classic;html=1;verticalAlign=top;dashed=1;" parent="42opMkd3-ntrzkHxIpRt-1" edge="1">
          <mxGeometry width="50" height="50" relative="1" as="geometry">
            <mxPoint x="2950" y="570.5" as="sourcePoint" />
            <mxPoint x="3080" y="570" as="targetPoint" />
          </mxGeometry>
        </mxCell>
      </root>
    </mxGraphModel>
  </diagram>
  <diagram id="a-RNjdHXBQ174pXRn1Qw" name="#3 Mapping">
    <mxGraphModel dx="1929" dy="1131" grid="1" gridSize="10" guides="1" tooltips="1" connect="1" arrows="1" fold="1" page="1" pageScale="1" pageWidth="1600" pageHeight="900" math="0" shadow="0">
      <root>
        <mxCell id="Ka8ez7n9a7QdZ7t_4yAI-0" />
        <mxCell id="Ka8ez7n9a7QdZ7t_4yAI-1" parent="Ka8ez7n9a7QdZ7t_4yAI-0" />
        <UserObject label="Mapping" link="data:page/id,ldTAqI2T-_zdcecsA4YL" id="6MaHLs1leE9JKEzJSeug-0">
          <mxCell style="swimlane;fillColor=#f5f5f5;strokeColor=#666666;fontSize=24;strokeWidth=5;perimeterSpacing=4;fontColor=#333333;" parent="Ka8ez7n9a7QdZ7t_4yAI-1" vertex="1">
            <mxGeometry x="1860" y="130" width="1350" height="1090" as="geometry">
              <mxRectangle x="1750" y="200" width="180" height="23" as="alternateBounds" />
            </mxGeometry>
          </mxCell>
        </UserObject>
        <mxCell id="6MaHLs1leE9JKEzJSeug-1" value="Elevation Layer" style="edgeStyle=orthogonalEdgeStyle;rounded=0;orthogonalLoop=1;jettySize=auto;html=0;verticalAlign=top;" parent="6MaHLs1leE9JKEzJSeug-0" source="6MaHLs1leE9JKEzJSeug-2" target="6MaHLs1leE9JKEzJSeug-4" edge="1">
          <mxGeometry relative="1" as="geometry" />
        </mxCell>
        <mxCell id="6MaHLs1leE9JKEzJSeug-2" value="&lt;font style=&quot;font-size: 24px&quot;&gt;Elevation mapping&lt;/font&gt;" style="whiteSpace=wrap;html=1;fillColor=#dae8fc;strokeColor=#6c8ebf;" parent="6MaHLs1leE9JKEzJSeug-0" vertex="1">
          <mxGeometry x="160" y="55" width="220" height="155" as="geometry" />
        </mxCell>
        <mxCell id="6MaHLs1leE9JKEzJSeug-3" value="Traversability Layers" style="edgeStyle=orthogonalEdgeStyle;rounded=0;orthogonalLoop=1;jettySize=auto;html=0;verticalAlign=top;" parent="6MaHLs1leE9JKEzJSeug-0" source="6MaHLs1leE9JKEzJSeug-4" edge="1">
          <mxGeometry relative="1" as="geometry">
            <mxPoint x="1019" y="133" as="targetPoint" />
          </mxGeometry>
        </mxCell>
        <mxCell id="6MaHLs1leE9JKEzJSeug-4" value="&lt;font style=&quot;font-size: 24px&quot;&gt;Traversability mapping&lt;/font&gt;" style="whiteSpace=wrap;html=1;fillColor=#dae8fc;strokeColor=#6c8ebf;" parent="6MaHLs1leE9JKEzJSeug-0" vertex="1">
          <mxGeometry x="550" y="55" width="220" height="155" as="geometry" />
        </mxCell>
        <mxCell id="6MaHLs1leE9JKEzJSeug-5" value="Sensors:Point Cloud" style="endArrow=classic;html=1;verticalAlign=top;entryX=0;entryY=0.75;entryDx=0;entryDy=0;" parent="6MaHLs1leE9JKEzJSeug-0" target="6MaHLs1leE9JKEzJSeug-2" edge="1">
          <mxGeometry width="50" height="50" relative="1" as="geometry">
            <mxPoint y="171" as="sourcePoint" />
            <mxPoint x="90" y="133" as="targetPoint" />
          </mxGeometry>
        </mxCell>
        <mxCell id="6MaHLs1leE9JKEzJSeug-6" value="&lt;font style=&quot;font-size: 24px&quot;&gt;Local costmap&lt;/font&gt;" style="whiteSpace=wrap;html=1;fillColor=#dae8fc;strokeColor=#6c8ebf;" parent="6MaHLs1leE9JKEzJSeug-0" vertex="1">
          <mxGeometry x="1020" y="55" width="220" height="265" as="geometry" />
        </mxCell>
        <mxCell id="6MaHLs1leE9JKEzJSeug-7" value="Elevation Layer" style="endArrow=classic;html=1;verticalAlign=top;exitX=0.5;exitY=1;exitDx=0;exitDy=0;entryX=-0.005;entryY=0.702;entryDx=0;entryDy=0;entryPerimeter=0;edgeStyle=orthogonalEdgeStyle;" parent="6MaHLs1leE9JKEzJSeug-0" source="6MaHLs1leE9JKEzJSeug-2" target="6MaHLs1leE9JKEzJSeug-6" edge="1">
          <mxGeometry width="50" height="50" relative="1" as="geometry">
            <mxPoint x="60" y="-130" as="sourcePoint" />
            <mxPoint x="110" y="-180" as="targetPoint" />
          </mxGeometry>
        </mxCell>
        <mxCell id="6MaHLs1leE9JKEzJSeug-8" value="&lt;font style=&quot;font-size: 24px&quot;&gt;Global Feature Map Fusion&lt;/font&gt;" style="whiteSpace=wrap;html=1;fillColor=#dae8fc;strokeColor=#6c8ebf;" parent="6MaHLs1leE9JKEzJSeug-0" vertex="1">
          <mxGeometry x="160" y="440" width="220" height="156" as="geometry" />
        </mxCell>
        <mxCell id="M9dY9LN8qdS82Russqsr-0" value="Feature Detection:Feature List" style="endArrow=classic;html=1;verticalAlign=top;entryX=0;entryY=0.75;entryDx=0;entryDy=0;" parent="6MaHLs1leE9JKEzJSeug-0" target="6MaHLs1leE9JKEzJSeug-8" edge="1">
          <mxGeometry width="50" height="50" relative="1" as="geometry">
            <mxPoint y="556" as="sourcePoint" />
            <mxPoint x="20" y="-70" as="targetPoint" />
          </mxGeometry>
        </mxCell>
        <mxCell id="eCV0aT7zxg5BWDdO299g-2" value="Localization:Pose" style="endArrow=classic;html=1;verticalAlign=top;entryX=0;entryY=0.25;entryDx=0;entryDy=0;" parent="6MaHLs1leE9JKEzJSeug-0" target="6MaHLs1leE9JKEzJSeug-2" edge="1">
          <mxGeometry width="50" height="50" relative="1" as="geometry">
            <mxPoint y="94" as="sourcePoint" />
            <mxPoint x="100" y="143" as="targetPoint" />
          </mxGeometry>
        </mxCell>
        <mxCell id="eCV0aT7zxg5BWDdO299g-1" value="Localization:Pose" style="endArrow=classic;html=1;verticalAlign=top;entryX=0;entryY=0.25;entryDx=0;entryDy=0;" parent="6MaHLs1leE9JKEzJSeug-0" target="6MaHLs1leE9JKEzJSeug-8" edge="1">
          <mxGeometry width="50" height="50" relative="1" as="geometry">
            <mxPoint y="479" as="sourcePoint" />
            <mxPoint x="100" y="527.7750000000001" as="targetPoint" />
          </mxGeometry>
        </mxCell>
        <mxCell id="2VdHX38S7WGs1jzmx97g-1" value="Feature Detection:Feature List" style="endArrow=classic;html=1;verticalAlign=top;entryX=-0.005;entryY=0.921;entryDx=0;entryDy=0;entryPerimeter=0;dashed=1;" parent="6MaHLs1leE9JKEzJSeug-0" target="6MaHLs1leE9JKEzJSeug-6" edge="1">
          <mxGeometry width="50" height="50" relative="1" as="geometry">
            <mxPoint y="299" as="sourcePoint" />
            <mxPoint x="100" y="566.25" as="targetPoint" />
          </mxGeometry>
        </mxCell>
        <mxCell id="2VdHX38S7WGs1jzmx97g-4" value="&lt;font style=&quot;font-size: 24px&quot;&gt;Field Position State Graph/Map&lt;br&gt;&lt;/font&gt;" style="whiteSpace=wrap;html=1;fillColor=#f5f5f5;strokeColor=#666666;fontColor=#333333;" parent="6MaHLs1leE9JKEzJSeug-0" vertex="1">
          <mxGeometry x="160" y="920" width="220" height="155" as="geometry" />
        </mxCell>
        <mxCell id="rGWu54lfS5nSmR7nEJ0M-0" value="&lt;div&gt;Costmap&lt;/div&gt;" style="endArrow=classic;html=1;verticalAlign=top;exitX=1;exitY=0.5;exitDx=0;exitDy=0;" parent="6MaHLs1leE9JKEzJSeug-0" source="6MaHLs1leE9JKEzJSeug-6" edge="1">
          <mxGeometry width="50" height="50" relative="1" as="geometry">
            <mxPoint x="330" y="230" as="sourcePoint" />
            <mxPoint x="1350" y="188" as="targetPoint" />
          </mxGeometry>
        </mxCell>
        <mxCell id="4AyzUZmMacDK5CW_299K-0" value="" style="shape=image;html=1;verticalAlign=top;verticalLabelPosition=bottom;labelBackgroundColor=#ffffff;imageAspect=0;aspect=fixed;image=https://cdn0.iconfinder.com/data/icons/gradient-runded-glowing-icons/128/plus_2.png;fontColor=#FF0000;strokeWidth=15;" parent="6MaHLs1leE9JKEzJSeug-0" vertex="1">
          <mxGeometry x="320" y="1020" width="50" height="50" as="geometry" />
        </mxCell>
        <mxCell id="REKFWE1cofi9VHlde-2n-0" value="&lt;font style=&quot;font-size: 24px&quot;&gt;Global Costmap&lt;br&gt;&lt;/font&gt;" style="whiteSpace=wrap;html=1;fillColor=#f5f5f5;strokeColor=#666666;fontColor=#333333;" parent="6MaHLs1leE9JKEzJSeug-0" vertex="1">
          <mxGeometry x="160" y="740" width="220" height="156" as="geometry" />
        </mxCell>
        <mxCell id="REKFWE1cofi9VHlde-2n-3" value="Global Feature Map" style="endArrow=classic;html=1;verticalAlign=top;exitX=1;exitY=0.5;exitDx=0;exitDy=0;" parent="6MaHLs1leE9JKEzJSeug-0" source="REKFWE1cofi9VHlde-2n-0" edge="1">
          <mxGeometry width="50" height="50" relative="1" as="geometry">
            <mxPoint x="1180" y="497.5" as="sourcePoint" />
            <mxPoint x="1350" y="817.9999999999998" as="targetPoint" />
          </mxGeometry>
        </mxCell>
        <mxCell id="REKFWE1cofi9VHlde-2n-4" value="" style="shape=image;html=1;verticalAlign=top;verticalLabelPosition=bottom;labelBackgroundColor=#ffffff;imageAspect=0;aspect=fixed;image=https://cdn0.iconfinder.com/data/icons/gradient-runded-glowing-icons/128/plus_2.png;fontColor=#FF0000;strokeWidth=15;" parent="6MaHLs1leE9JKEzJSeug-0" vertex="1">
          <mxGeometry x="320" y="840" width="50" height="50" as="geometry" />
        </mxCell>
        <mxCell id="S7aDmX5suXAZniosJqIW-0" value="Global Feature Map" style="endArrow=classic;html=1;verticalAlign=top;exitX=1;exitY=0.5;exitDx=0;exitDy=0;" parent="Ka8ez7n9a7QdZ7t_4yAI-1" source="6MaHLs1leE9JKEzJSeug-8" edge="1">
          <mxGeometry width="50" height="50" relative="1" as="geometry">
            <mxPoint x="3040" y="327.5" as="sourcePoint" />
            <mxPoint x="3210" y="648" as="targetPoint" />
          </mxGeometry>
        </mxCell>
        <mxCell id="IYgC4OYlZi0JBmF1PjgT-0" value="&lt;div&gt;Local Costmap&lt;/div&gt;&lt;div&gt;Global Feature Map&lt;br&gt;&lt;/div&gt;" style="endArrow=classic;html=1;verticalAlign=top;entryX=0;entryY=0.25;entryDx=0;entryDy=0;strokeWidth=6;" parent="Ka8ez7n9a7QdZ7t_4yAI-1" edge="1">
          <mxGeometry width="50" height="50" relative="1" as="geometry">
            <mxPoint x="3210" y="190" as="sourcePoint" />
            <mxPoint x="3390" y="190" as="targetPoint" />
          </mxGeometry>
        </mxCell>
        <mxCell id="IYgC4OYlZi0JBmF1PjgT-1" value="Pose" style="endArrow=classic;html=1;verticalAlign=top;entryX=0;entryY=0.25;entryDx=0;entryDy=0;strokeWidth=6;" parent="Ka8ez7n9a7QdZ7t_4yAI-1" edge="1">
          <mxGeometry width="50" height="50" relative="1" as="geometry">
            <mxPoint x="1630" y="190" as="sourcePoint" />
            <mxPoint x="1860" y="190" as="targetPoint" />
          </mxGeometry>
        </mxCell>
        <mxCell id="IYgC4OYlZi0JBmF1PjgT-2" value="&lt;div&gt;Point Cloud &lt;br&gt;&lt;/div&gt;" style="endArrow=classic;html=1;verticalAlign=top;entryX=0;entryY=0.25;entryDx=0;entryDy=0;strokeWidth=6;" parent="Ka8ez7n9a7QdZ7t_4yAI-1" edge="1">
          <mxGeometry width="50" height="50" relative="1" as="geometry">
            <mxPoint x="1630" y="240" as="sourcePoint" />
            <mxPoint x="1860" y="240" as="targetPoint" />
          </mxGeometry>
        </mxCell>
        <mxCell id="IYgC4OYlZi0JBmF1PjgT-3" value="&lt;div&gt;Feature List&lt;/div&gt;" style="endArrow=classic;html=1;verticalAlign=top;entryX=0;entryY=0.25;entryDx=0;entryDy=0;strokeWidth=6;" parent="Ka8ez7n9a7QdZ7t_4yAI-1" edge="1">
          <mxGeometry width="50" height="50" relative="1" as="geometry">
            <mxPoint x="1630" y="290" as="sourcePoint" />
            <mxPoint x="1860" y="290" as="targetPoint" />
          </mxGeometry>
        </mxCell>
        <UserObject label="&lt;font style=&quot;font-size: 24px&quot;&gt;Localization&lt;/font&gt;" link="data:page/id,JPMW2gzQvGPrBKrfu0p5" id="4Hp6Hl2nHy4vma8WFj0i-0">
          <mxCell style="text;html=1;align=center;verticalAlign=middle;resizable=0;points=[];autosize=1;strokeColor=none;" parent="Ka8ez7n9a7QdZ7t_4yAI-1" vertex="1">
            <mxGeometry x="1470" y="180" width="140" height="20" as="geometry" />
          </mxCell>
        </UserObject>
        <mxCell id="4Hp6Hl2nHy4vma8WFj0i-1" value="&lt;font style=&quot;font-size: 24px&quot;&gt;Sensors&lt;/font&gt;" style="text;html=1;align=center;verticalAlign=middle;resizable=0;points=[];autosize=1;strokeColor=none;" parent="Ka8ez7n9a7QdZ7t_4yAI-1" vertex="1">
          <mxGeometry x="1490" y="230" width="100" height="20" as="geometry" />
        </mxCell>
        <UserObject label="&lt;font style=&quot;font-size: 24px&quot;&gt;Feature Detection&lt;/font&gt;" link="data:page/id,IOYLnJJ4BgAqwaHzsp6H" id="4Hp6Hl2nHy4vma8WFj0i-2">
          <mxCell style="text;html=1;align=center;verticalAlign=middle;resizable=0;points=[];autosize=1;strokeColor=none;" parent="Ka8ez7n9a7QdZ7t_4yAI-1" vertex="1">
            <mxGeometry x="1420" y="280" width="200" height="20" as="geometry" />
          </mxCell>
        </UserObject>
        <mxCell id="pNnv-znb42WvR6uChSDV-0" value="Local Costmap" style="endArrow=classic;html=1;verticalAlign=top;edgeStyle=orthogonalEdgeStyle;entryX=0;entryY=0.25;entryDx=0;entryDy=0;" edge="1" parent="Ka8ez7n9a7QdZ7t_4yAI-1" target="REKFWE1cofi9VHlde-2n-0">
          <mxGeometry width="50" height="50" relative="1" as="geometry">
            <mxPoint x="3120" y="320" as="sourcePoint" />
            <mxPoint x="2140" y="820" as="targetPoint" />
            <Array as="points">
              <mxPoint x="3120" y="770" />
              <mxPoint x="1910" y="770" />
              <mxPoint x="1910" y="909" />
            </Array>
          </mxGeometry>
        </mxCell>
        <mxCell id="pNnv-znb42WvR6uChSDV-1" value="Localization:Pose" style="endArrow=classic;html=1;verticalAlign=top;entryX=0;entryY=0.75;entryDx=0;entryDy=0;" edge="1" parent="Ka8ez7n9a7QdZ7t_4yAI-1" target="REKFWE1cofi9VHlde-2n-0">
          <mxGeometry width="50" height="50" relative="1" as="geometry">
            <mxPoint x="1860" y="987" as="sourcePoint" />
            <mxPoint x="2020" y="909" as="targetPoint" />
          </mxGeometry>
        </mxCell>
      </root>
    </mxGraphModel>
  </diagram>
  <diagram id="a8lF55s-MSeGZywUDsS5" name="#3 Odometry">
    <mxGraphModel dx="1350" dy="793" grid="1" gridSize="10" guides="1" tooltips="1" connect="1" arrows="1" fold="1" page="1" pageScale="1" pageWidth="1600" pageHeight="900" math="0" shadow="0">
      <root>
        <mxCell id="1AzPKjio_6jGX_QEEl5s-0" />
        <mxCell id="1AzPKjio_6jGX_QEEl5s-1" parent="1AzPKjio_6jGX_QEEl5s-0" />
      </root>
    </mxGraphModel>
  </diagram>
</mxfile>
